<svg width="6" height="22" viewBox="0 0 6 22" fill="none" xmlns="http://www.w3.org/2000/svg">
<path d="M0.658868 2.75081C0.658868 2.13198 0.9047 1.53848 1.34229 1.1009C1.77987 0.663312 2.37336 0.41748 2.9922 0.41748L3.00553 0.41748C3.62437 0.41748 4.21787 0.663313 4.65545 1.1009C5.09304 1.53848 5.33887 2.13198 5.33887 2.75081C5.33887 3.36965 5.09303 3.96314 4.65545 4.40073C4.21787 4.83831 3.62437 5.08415 3.00553 5.08415L2.9922 5.08415C2.37336 5.08415 1.77987 4.83831 1.34228 4.40073C0.9047 3.96314 0.658868 3.36965 0.658868 2.75081ZM0.658867 18.7508C0.658867 18.132 0.9047 17.5385 1.34228 17.1009C1.77987 16.6633 2.37336 16.4175 2.9922 16.4175L3.00553 16.4175C3.62437 16.4175 4.21786 16.6633 4.65545 17.1009C5.09303 17.5385 5.33887 18.132 5.33887 18.7508C5.33887 19.3697 5.09303 19.9631 4.65545 20.4007C4.21786 20.8383 3.62437 21.0841 3.00553 21.0841L2.9922 21.0841C2.37336 21.0841 1.77987 20.8383 1.34228 20.4007C0.904699 19.9631 0.658867 19.3697 0.658867 18.7508ZM2.9922 8.41748C2.37336 8.41748 1.77987 8.66331 1.34228 9.1009C0.9047 9.53848 0.658867 10.132 0.658867 10.7508C0.658867 11.3697 0.9047 11.9631 1.34228 12.4007C1.77987 12.8383 2.37336 13.0841 2.9922 13.0841L3.00553 13.0841C3.62437 13.0841 4.21786 12.8383 4.65545 12.4007C5.09303 11.9631 5.33887 11.3697 5.33887 10.7508C5.33887 10.132 5.09303 9.53848 4.65545 9.1009C4.21786 8.66331 3.62437 8.41748 3.00553 8.41748L2.9922 8.41748Z" fill="#697586"/>
</svg>
