<svg width="11" height="10" viewBox="0 0 11 10" fill="none" xmlns="http://www.w3.org/2000/svg">
<path d="M9.62109 4.12109H6.37891V0.878906C6.37891 0.393496 5.98541 0 5.5 0C5.01459 0 4.62109 0.393496 4.62109 0.878906V4.12109H1.37891C0.893496 4.12109 0.5 4.51459 0.5 5C0.5 5.48541 0.893496 5.87891 1.37891 5.87891H4.62109V9.12109C4.62109 9.6065 5.01459 10 5.5 10C5.98541 10 6.37891 9.6065 6.37891 9.12109V5.87891H9.62109C10.1065 5.87891 10.5 5.48541 10.5 5C10.5 4.51459 10.1065 4.12109 9.62109 4.12109Z" fill="black"/>
</svg>
