<svg width="13" height="13" viewBox="0 0 13 13" fill="none" xmlns="http://www.w3.org/2000/svg">
<path d="M11.4453 5.44531H7.55469V1.55469C7.55469 0.972195 7.08249 0.5 6.5 0.5C5.91751 0.5 5.44531 0.972195 5.44531 1.55469V5.44531H1.55469C0.972195 5.44531 0.5 5.91751 0.5 6.5C0.5 7.08249 0.972195 7.55469 1.55469 7.55469H5.44531V11.4453C5.44531 12.0278 5.91751 12.5 6.5 12.5C7.08249 12.5 7.55469 12.0278 7.55469 11.4453V7.55469H11.4453C12.0278 7.55469 12.5 7.08249 12.5 6.5C12.5 5.91751 12.0278 5.44531 11.4453 5.44531Z" fill="white"/>
</svg>
