<svg width="15" height="16" viewBox="0 0 15 16" fill="none" xmlns="http://www.w3.org/2000/svg">
<path d="M11.71 7.44054H3.25423V5.91657H11.71V7.44054ZM11.71 4.02892H3.25423V2.50495H11.71V4.02892ZM4.9604 12.0496L4.08946 12.449L3.98085 11.5416L3.21851 10.9972L3.98085 10.4528L4.08946 9.54538L4.92396 9.94477L5.75847 9.54538L5.86707 10.4528L6.62941 10.9972L5.90351 11.5052L5.79491 12.4126L4.9604 12.0496ZM10.549 10.1263H12.5453L9.17008 13.5014V11.5052C9.17008 10.7428 9.78668 10.1263 10.549 10.1263ZM12.7625 0.000714764H2.23825C1.40374 0.000714764 0.75 0.763059 0.75 1.70617V13.5372C0.75 14.481 1.43947 15.2426 2.23825 15.2426H9.16937L14.25 10.162V1.66973C14.25 0.725907 13.5605 0 12.7625 0V0.000714764Z" fill="#242E39"/>
</svg>
