<svg width="10" height="16" viewBox="0 0 10 16" fill="none" xmlns="http://www.w3.org/2000/svg">
<path d="M6.53135 13.9373H2.96885C2.78135 13.9373 2.65635 13.8123 2.65635 13.6248V11.8748C2.65635 10.5623 2.15635 9.21855 1.2501 8.15605C0.437598 7.1873 0.0938477 5.9998 0.218848 4.7498C0.437598 2.53105 2.28135 0.78105 4.53135 0.65605C7.15635 0.4998 9.3751 2.6248 9.3751 5.21855C9.3751 6.28105 9.0001 7.3123 8.3126 8.1248C7.3751 9.2498 6.8751 10.5936 6.8751 11.9373V13.6248C6.84385 13.8123 6.71885 13.9373 6.53135 13.9373ZM3.28135 13.3123H6.21885V11.9373C6.21885 10.4686 6.78135 8.96855 7.78135 7.71855C8.3751 6.9998 8.6876 6.1248 8.6876 5.21855C8.6876 2.96855 6.78135 1.15605 4.5001 1.28105C2.59385 1.40605 1.0001 2.90605 0.812597 4.8123C0.687597 5.8748 1.03135 6.9373 1.71885 7.7498C2.71885 8.96855 3.28135 10.4373 3.28135 11.8748V13.3123Z" fill="white"/>
<path d="M4.75 15.3437C3.8125 15.3437 3.03125 14.5937 3 13.6562V13.3437H6.5V13.6562C6.46875 14.5937 5.6875 15.3437 4.75 15.3437ZM3.6875 13.9375C3.84375 14.375 4.25 14.7187 4.75 14.7187C5.25 14.7187 5.65625 14.4062 5.8125 13.9375H3.6875ZM2.78125 10.5625H6.6875V11.1875H2.78125V10.5625ZM2.9375 11.9062H6.59375V12.5312H2.9375V11.9062Z" fill="white"/>
<path d="M6.53135 13.9373H2.96885C2.78135 13.9373 2.65635 13.8123 2.65635 13.6248V11.8748C2.65635 10.5623 2.15635 9.21855 1.2501 8.15605C0.437598 7.1873 0.0938477 5.9998 0.218848 4.7498C0.437598 2.53105 2.28135 0.78105 4.53135 0.65605C7.15635 0.4998 9.3751 2.6248 9.3751 5.21855C9.3751 6.28105 9.0001 7.3123 8.3126 8.1248C7.3751 9.2498 6.8751 10.5936 6.8751 11.9373V13.6248C6.84385 13.8123 6.71885 13.9373 6.53135 13.9373ZM3.28135 13.3123H6.21885V11.9373C6.21885 10.4686 6.78135 8.96855 7.78135 7.71855C8.3751 6.9998 8.6876 6.1248 8.6876 5.21855C8.6876 2.96855 6.78135 1.15605 4.5001 1.28105C2.59385 1.40605 1.0001 2.90605 0.812597 4.8123C0.687597 5.8748 1.03135 6.9373 1.71885 7.7498C2.71885 8.96855 3.28135 10.4373 3.28135 11.8748V13.3123Z" fill="white"/>
<path d="M4.75 15.3437C3.8125 15.3437 3.03125 14.5937 3 13.6562V13.3437H6.5V13.6562C6.46875 14.5937 5.6875 15.3437 4.75 15.3437ZM3.6875 13.9375C3.84375 14.375 4.25 14.7187 4.75 14.7187C5.25 14.7187 5.65625 14.4062 5.8125 13.9375H3.6875ZM2.78125 10.5625H6.6875V11.1875H2.78125V10.5625ZM2.9375 11.9062H6.59375V12.5312H2.9375V11.9062Z" fill="white"/>
</svg>
