<svg width="30" height="26" viewBox="0 0 30 26" fill="none" xmlns="http://www.w3.org/2000/svg">
<path d="M19.8383 15.0245C19.8383 17.6924 17.6679 19.8628 15 19.8628C12.3321 19.8628 10.1625 17.6924 10.1625 15.0245C10.1625 12.3565 12.3321 10.1862 15 10.1862C17.6679 10.1862 19.8383 12.3574 19.8383 15.0245ZM30 8.15434V21.8963C30 22.7761 29.6505 23.6198 29.0284 24.2419C28.4063 24.8641 27.5625 25.2136 26.6827 25.2136H3.3173C2.4375 25.2136 1.59373 24.8641 0.971615 24.2419C0.3495 23.6198 0 22.7761 0 21.8963V8.15434C0 7.27454 0.3495 6.43077 0.971615 5.80866C1.59373 5.18654 2.4375 4.83704 3.3173 4.83704H7.39758V3.68926C7.39758 2.91943 7.70339 2.18113 8.24774 1.63678C8.79209 1.09243 9.53039 0.786621 10.3002 0.786621H19.6998C20.4696 0.786621 21.2079 1.09243 21.7523 1.63678C22.2966 2.18113 22.6024 2.91943 22.6024 3.68926V4.83621H26.6827C28.5147 4.83704 30 6.32236 30 8.15434ZM22.3263 15.0245C22.3263 10.9848 19.0396 7.69822 15 7.69822C10.9612 7.69822 7.67457 10.9848 7.67457 15.0245C7.67457 19.0641 10.9612 22.3507 15 22.3507C19.0396 22.3507 22.3263 19.0641 22.3263 15.0245Z" fill="#4BADE6"/>
</svg>
