<svg width="40" height="38" viewBox="0 0 40 38" fill="none" xmlns="http://www.w3.org/2000/svg">
<path d="M20.254 0.950195C9.50791 0.950195 0.765259 8.62113 0.765259 18.0502C0.765259 21.3461 1.83454 24.5387 3.86267 27.2994C3.47874 31.4395 2.44974 34.5131 0.955599 35.9691C0.8594 36.063 0.795895 36.184 0.774055 36.315C0.752215 36.446 0.773142 36.5804 0.833881 36.6992C0.894621 36.818 0.992102 36.9151 1.11256 36.977C1.23301 37.0388 1.37035 37.0622 1.50518 37.0439C1.76828 37.0078 7.87995 36.1502 12.3006 33.6625C14.8108 34.6499 17.4847 35.1502 20.254 35.1502C31.0001 35.1502 39.7428 27.4793 39.7428 18.0502C39.7428 8.62113 31.0001 0.950195 20.254 0.950195ZM11.1593 20.5835C9.72618 20.5835 8.56076 19.4473 8.56076 18.0502C8.56076 16.6531 9.72618 15.5169 11.1593 15.5169C12.5923 15.5169 13.7578 16.6531 13.7578 18.0502C13.7578 19.4473 12.5923 20.5835 11.1593 20.5835ZM20.254 20.5835C18.8209 20.5835 17.6555 19.4473 17.6555 18.0502C17.6555 16.6531 18.8209 15.5169 20.254 15.5169C21.6871 15.5169 22.8525 16.6531 22.8525 18.0502C22.8525 19.4473 21.6871 20.5835 20.254 20.5835ZM29.3488 20.5835C27.9157 20.5835 26.7503 19.4473 26.7503 18.0502C26.7503 16.6531 27.9157 15.5169 29.3488 15.5169C30.7818 15.5169 31.9473 16.6531 31.9473 18.0502C31.9473 19.4473 30.7818 20.5835 29.3488 20.5835Z" fill="#4BADE6"/>
</svg>
