<svg width="16" height="16" viewBox="0 0 16 16" fill="none" xmlns="http://www.w3.org/2000/svg">
<path d="M10.1825 9.6274L8.09111 8.05885V4.86367C8.09111 4.5424 7.83143 4.28271 7.51016 4.28271C7.18889 4.28271 6.9292 4.5424 6.9292 4.86367V8.34936C6.9292 8.53234 7.01519 8.7049 7.16158 8.81412L9.48535 10.557C9.58564 10.6325 9.7078 10.6733 9.83334 10.6732C10.0105 10.6732 10.1848 10.5936 10.2987 10.4402C10.4916 10.184 10.4393 9.81971 10.1825 9.6274Z" fill="black"/>
<path d="M7.51025 0.802734C3.3745 0.802734 0.0102539 4.16698 0.0102539 8.30273C0.0102539 12.4385 3.3745 15.8027 7.51025 15.8027C11.646 15.8027 15.0103 12.4385 15.0103 8.30273C15.0103 4.16698 11.646 0.802734 7.51025 0.802734ZM7.51025 14.6409C4.01587 14.6409 1.17214 11.7971 1.17214 8.30273C1.17214 4.80835 4.01587 1.96462 7.51025 1.96462C11.0052 1.96462 13.8484 4.80835 13.8484 8.30273C13.8484 11.7971 11.0046 14.6409 7.51025 14.6409Z" fill="black"/>
</svg>
