<svg width="20" height="20" viewBox="0 0 20 20" fill="none" xmlns="http://www.w3.org/2000/svg">
<path d="M3.6844 15.6666H4.67502V19.0625C4.67491 19.1221 4.69186 19.1805 4.72388 19.2308C4.7559 19.2811 4.80164 19.3211 4.85571 19.3463C4.90978 19.3714 4.9699 19.3805 5.02898 19.3725C5.08806 19.3645 5.14362 19.3398 5.18909 19.3013L9.49721 15.6666H16.3156C17.8507 15.6666 19.1 14.4175 19.1 12.8825V3.40937C19.1 1.87406 17.8503 0.625 16.3156 0.625H3.6844C2.1494 0.625 0.900024 1.87406 0.900024 3.40906V12.8825C0.900024 14.4175 2.1494 15.6666 3.6844 15.6666ZM1.52502 3.40906C1.52502 2.21844 2.49377 1.25 3.6844 1.25H16.3156C17.5063 1.25 18.475 2.21875 18.475 3.40906V12.8825C18.475 14.0731 17.5063 15.0416 16.3156 15.0416H9.38284C9.30914 15.0416 9.23784 15.0677 9.18159 15.1153L5.30002 18.39V15.3541C5.30002 15.2712 5.2671 15.1917 5.2085 15.1331C5.14989 15.0745 5.07041 15.0416 4.98752 15.0416H3.6844C2.49377 15.0416 1.52502 14.0728 1.52502 12.8825V3.40906Z" fill="#9AA4B2"/>
</svg>
