<svg width="61" height="50" viewBox="0 0 61 50" fill="none" xmlns="http://www.w3.org/2000/svg">
<path d="M30.4087 24.5382C34.3374 22.2895 37.0218 18.1026 37.0218 13.2608C37.0218 6.06862 31.1704 0.217285 23.9782 0.217285C16.7861 0.217285 10.9347 6.06862 10.9347 13.2608C10.9347 18.1026 13.6191 22.2895 17.5478 24.5382C7.7209 27.1182 0.5 35.4269 0.5 45.2747V48.4782C0.5 49.1982 1.08439 49.7825 1.80439 49.7825C2.52439 49.7825 3.10878 49.1982 3.10878 48.4782V45.2747C3.10865 34.8165 12.4713 26.3043 23.9782 26.3043C35.4851 26.3043 44.8478 34.8165 44.8478 45.2747V48.4782C44.8478 49.1982 45.4322 49.7825 46.1522 49.7825C46.8722 49.7825 47.4566 49.1982 47.4566 48.4782V45.2747C47.4565 35.4269 40.2356 27.1157 30.4087 24.5382ZM13.5435 13.2608C13.5435 7.50606 18.2235 2.82606 23.9782 2.82606C29.733 2.82606 34.413 7.50606 34.413 13.2608C34.413 19.0155 29.733 23.6955 23.9782 23.6955C18.2235 23.6955 13.5435 19.0157 13.5435 13.2608Z" fill="#4D80B3"/>
<path d="M47.973 24.5724C50.8008 22.702 52.6739 19.5037 52.6739 15.8698C52.6739 10.1151 47.9939 5.43506 42.2392 5.43506C41.5192 5.43506 40.9348 6.01945 40.9348 6.73945C40.9348 7.45945 41.5192 8.04383 42.2392 8.04383C46.5539 8.04383 50.0653 11.5552 50.0653 15.8699C50.0653 20.1847 46.5539 23.696 42.2392 23.696C41.5192 23.696 40.9348 24.2804 40.9348 25.0004C40.9348 25.7204 41.5191 26.3045 42.2391 26.3045C50.8713 26.3045 57.8912 32.7924 57.8912 40.7697V43.261C57.8912 43.981 58.4756 44.5653 59.1956 44.5653C59.9156 44.5653 60.5 43.981 60.5 43.261V40.7697C60.5 33.2306 55.2409 26.8263 47.973 24.5724Z" fill="#4D80B3"/>
</svg>
