<svg width="15" height="14" viewBox="0 0 15 14" fill="none" xmlns="http://www.w3.org/2000/svg">
<path d="M11.7 5.6C13.244 5.6 14.5 4.34401 14.5 2.8C14.5 1.25599 13.244 0 11.7 0C10.5788 0 9.61208 0.663883 9.16535 1.61795L8.41556 1.34121C8.42445 1.28379 8.43333 1.22637 8.43333 1.16667C8.43333 0.523405 7.90993 0 7.26667 0C6.6234 0 6.1 0.523405 6.1 1.16667C6.1 1.80993 6.6234 2.33333 7.26667 2.33333C7.68457 2.33333 8.04904 2.11048 8.25503 1.77939L9.00356 2.05568C8.93783 2.29323 8.9 2.54194 8.9 2.8C8.9 3.10568 8.95081 3.39917 9.04185 3.67477L6.47563 4.76237C6.00578 3.87404 5.07313 3.26667 4 3.26667C3.65228 3.26667 3.32051 3.33343 3.013 3.44964L2.36758 2.09328C2.64876 1.88 2.83333 1.54583 2.83333 1.16667C2.83333 0.523405 2.30993 0 1.66667 0C1.0234 0 0.5 0.523405 0.5 1.16667C0.5 1.80993 1.0234 2.33333 1.66667 2.33333C1.76374 2.33333 1.85682 2.31795 1.94717 2.29528L2.5918 3.65028C1.76089 4.13654 1.2 5.03626 1.2 6.06667C1.2 7.03452 1.69378 7.88879 2.44232 8.3918L2.01553 9.15902C1.90444 9.12404 1.78892 9.1 1.66667 9.1C1.0234 9.1 0.5 9.62341 0.5 10.2667C0.5 10.9099 1.0234 11.4333 1.66667 11.4333C2.30993 11.4333 2.83333 10.9099 2.83333 10.2667C2.83333 9.91336 2.67212 9.60005 2.4234 9.38608L2.85111 8.61727C3.20202 8.77609 3.5903 8.86667 4 8.86667C4.6403 8.86667 5.22922 8.64826 5.70146 8.28516L6.61987 9.29551C6.15412 9.79578 5.86667 10.4641 5.86667 11.2C5.86667 11.3428 5.88091 11.4819 5.90142 11.6188L4.82088 11.8753C4.63494 11.4777 4.23379 11.2 3.76667 11.2C3.1234 11.2 2.6 11.7234 2.6 12.3667C2.6 13.0099 3.1234 13.5333 3.76667 13.5333C4.40993 13.5333 4.93333 13.0099 4.93333 12.3667C4.93333 12.3538 4.9298 12.3417 4.92957 12.3288L6.00806 12.0732C6.37583 13.1905 7.42765 14 8.66667 14C10.2107 14 11.4667 12.744 11.4667 11.2C11.4667 10.7213 11.3456 10.2704 11.1327 9.87611L12.5033 8.98493C12.7153 9.19958 13.0087 9.33333 13.3333 9.33333C13.9766 9.33333 14.5 8.80993 14.5 8.16667C14.5 7.52341 13.9766 7 13.3333 7C12.6901 7 12.1667 7.52341 12.1667 8.16667C12.1667 8.3174 12.1977 8.46061 12.25 8.593L10.8762 9.48612C10.6012 9.1327 10.2443 8.8473 9.83333 8.65783L10.9722 5.50065C11.2046 5.56331 11.448 5.6 11.7 5.6ZM7.26667 1.86667C6.88078 1.86667 6.56667 1.55256 6.56667 1.16667C6.56667 0.780778 6.88078 0.466667 7.26667 0.466667C7.65256 0.466667 7.96667 0.780778 7.96667 1.16667C7.96667 1.55256 7.65256 1.86667 7.26667 1.86667ZM0.966667 1.16667C0.966667 0.780778 1.28078 0.466667 1.66667 0.466667C2.05256 0.466667 2.36667 0.780778 2.36667 1.16667C2.36667 1.55256 2.05256 1.86667 1.66667 1.86667C1.28078 1.86667 0.966667 1.55256 0.966667 1.16667ZM1.66667 10.9667C1.28078 10.9667 0.966667 10.6526 0.966667 10.2667C0.966667 9.88078 1.28078 9.56667 1.66667 9.56667C2.05256 9.56667 2.36667 9.88078 2.36667 10.2667C2.36667 10.6526 2.05256 10.9667 1.66667 10.9667ZM3.76667 13.0667C3.38078 13.0667 3.06667 12.7526 3.06667 12.3667C3.06667 11.9808 3.38078 11.6667 3.76667 11.6667C4.15256 11.6667 4.46667 11.9808 4.46667 12.3667C4.46667 12.7526 4.15256 13.0667 3.76667 13.0667ZM13.3333 7.46667C13.7192 7.46667 14.0333 7.78078 14.0333 8.16667C14.0333 8.55256 13.7192 8.86667 13.3333 8.86667C12.9474 8.86667 12.6333 8.55256 12.6333 8.16667C12.6333 7.78078 12.9474 7.46667 13.3333 7.46667ZM10.3259 4.68159C10.43 4.14189 10.9058 3.73333 11.4667 3.73333H11.9333C12.4942 3.73333 12.97 4.14189 13.0741 4.68159C12.6881 4.96414 12.2141 5.13333 11.7 5.13333C11.1859 5.13333 10.7119 4.96414 10.3259 4.68159ZM11.7 3.26667C11.3141 3.26667 11 2.95256 11 2.56667C11 2.18078 11.3141 1.86667 11.7 1.86667C12.0859 1.86667 12.4 2.18078 12.4 2.56667C12.4 2.95256 12.0859 3.26667 11.7 3.26667ZM11.7 0.466667C12.9866 0.466667 14.0333 1.51336 14.0333 2.8C14.0333 3.38333 13.8165 3.91631 13.4612 4.32578C13.2977 3.89523 12.9568 3.55161 12.532 3.38197C12.7386 3.17142 12.8667 2.88397 12.8667 2.56667C12.8667 1.9234 12.3433 1.4 11.7 1.4C11.0567 1.4 10.5333 1.9234 10.5333 2.56667C10.5333 2.88397 10.6614 3.17142 10.868 3.38197C10.4432 3.55161 10.1023 3.89523 9.93884 4.32578C9.58348 3.91631 9.36667 3.38333 9.36667 2.8C9.36667 1.51336 10.4134 0.466667 11.7 0.466667ZM1.66667 6.06667C1.66667 4.78003 2.71336 3.73333 4 3.73333C5.28664 3.73333 6.33333 4.78003 6.33333 6.06667C6.33333 6.65182 6.11515 7.18617 5.75798 7.59621C5.59505 7.16406 5.25348 6.81873 4.8276 6.64863C5.03394 6.43809 5.162 6.15063 5.162 5.83333C5.162 5.19007 4.63859 4.66667 3.99533 4.66667C3.35207 4.66667 2.82866 5.19007 2.82866 5.83333C2.82866 6.15063 2.95672 6.43809 3.16328 6.64863C2.73979 6.81748 2.39937 7.15985 2.2353 7.58869C1.882 7.17967 1.66667 6.64841 1.66667 6.06667ZM3.29533 5.83333C3.29533 5.44744 3.60944 5.13333 3.99533 5.13333C4.38122 5.13333 4.69533 5.44744 4.69533 5.83333C4.69533 6.21922 4.38122 6.53333 3.99533 6.53333C3.60944 6.53333 3.29533 6.21922 3.29533 5.83333ZM2.62199 7.94518C2.72715 7.40697 3.20225 7 3.762 7H4.22866C4.79058 7 5.26727 7.40993 5.36992 7.95133C4.98472 8.23218 4.51213 8.4 4 8.4C3.48411 8.4 3.00856 8.22967 2.62199 7.94518ZM7.28866 13.0785C7.39382 12.5403 7.86891 12.1333 8.42866 12.1333H8.89533C9.45724 12.1333 9.93394 12.5433 10.0366 13.0847C9.65138 13.3655 9.17879 13.5333 8.66667 13.5333C8.15078 13.5333 7.67523 13.363 7.28866 13.0785ZM8.662 11.6667C8.27611 11.6667 7.962 11.3526 7.962 10.9667C7.962 10.5808 8.27611 10.2667 8.662 10.2667C9.04788 10.2667 9.362 10.5808 9.362 10.9667C9.362 11.3526 9.04788 11.6667 8.662 11.6667ZM11 11.2C11 11.7852 10.7818 12.3195 10.4246 12.7295C10.2617 12.2974 9.92015 11.9521 9.49427 11.782C9.7006 11.5714 9.82866 11.284 9.82866 10.9667C9.82866 10.3234 9.30526 9.8 8.662 9.8C8.01873 9.8 7.49533 10.3234 7.49533 10.9667C7.49533 11.284 7.62339 11.5714 7.82995 11.782C7.40646 11.9508 7.06603 12.2932 6.90197 12.722C6.54867 12.313 6.33333 11.7817 6.33333 11.2C6.33333 9.91336 7.38003 8.86667 8.66667 8.86667C9.9533 8.86667 11 9.91336 11 11.2ZM9.39447 8.49935C9.16204 8.43669 8.91868 8.4 8.66667 8.4C8.02637 8.4 7.43745 8.61841 6.9652 8.98151L6.04679 7.97116C6.51255 7.47088 6.8 6.80256 6.8 6.06667C6.8 5.76099 6.74919 5.4675 6.65815 5.19189L9.22437 4.1043C9.51182 4.64775 9.97313 5.08389 10.5336 5.34217L9.39447 8.49935Z" fill="#6E6E6E"/>
</svg>
