<svg width="45" height="46" viewBox="0 0 45 46" fill="none" xmlns="http://www.w3.org/2000/svg">
<path d="M28.7502 0.604004H16.2502C4.93155 0.604004 0.104492 5.43314 0.104492 16.7497V29.2497C0.104492 40.5663 4.93155 45.3954 16.2502 45.3954H28.7502C40.0689 45.3954 44.8959 40.5663 44.8959 29.2497V16.7497C44.8959 5.43314 40.0689 0.604004 28.7502 0.604004ZM41.7709 29.2497C41.7709 38.8621 38.3626 42.2704 28.7502 42.2704H16.2502C10.5065 42.2704 6.99195 41.0392 5.08155 38.01L14.1919 31.8976C14.7368 31.5467 15.3778 31.3749 16.0252 31.4063C16.6725 31.4377 17.2939 31.6706 17.8023 32.0726L18.4961 32.6684C19.6087 33.5913 21.0088 34.0964 22.4544 34.0964C23.8999 34.0964 25.3001 33.5913 26.4127 32.6684L35.0814 25.2309C35.6279 24.7959 36.3058 24.559 37.0043 24.559C37.7028 24.559 38.3807 24.7959 38.9272 25.2309L41.7751 27.6747L41.7709 29.2497ZM41.7709 23.556L40.9563 22.858C39.8437 21.9351 38.4436 21.43 36.998 21.43C35.5525 21.43 34.1523 21.9351 33.0397 22.858L24.3752 30.2913C23.829 30.7253 23.152 30.9616 22.4544 30.9616C21.7568 30.9616 21.0797 30.7253 20.5335 30.2913L19.8398 29.6955C18.8138 28.8459 17.5419 28.3486 16.2118 28.277C14.8816 28.2053 13.5637 28.5631 12.4523 29.2976L3.8503 35.083C3.39738 33.1726 3.18739 31.2127 3.22531 29.2497V16.7497C3.22947 7.1373 6.63779 3.72899 16.2502 3.72899H28.7502C38.3626 3.72899 41.7709 7.1373 41.7709 16.7497V23.556ZM16.2502 8.93729C15.1171 8.93729 14.0094 9.2733 13.0673 9.90282C12.1251 10.5323 11.3908 11.4271 10.9572 12.474C10.5236 13.5208 10.4101 14.6728 10.6312 15.7841C10.8522 16.8955 11.3979 17.9163 12.1991 18.7175C13.0004 19.5188 14.0212 20.0644 15.1325 20.2855C16.2439 20.5065 17.3958 20.3931 18.4427 19.9595C19.4895 19.5258 20.3843 18.7915 21.0138 17.8494C21.6434 16.9072 21.9794 15.7995 21.9794 14.6664C21.9783 13.1473 21.3743 11.6907 20.3001 10.6165C19.2259 9.54235 17.7694 8.93839 16.2502 8.93729ZM16.2502 17.2706C15.7352 17.2706 15.2317 17.1178 14.8034 16.8317C14.3752 16.5456 14.0414 16.1388 13.8443 15.663C13.6472 15.1871 13.5956 14.6635 13.6961 14.1584C13.7966 13.6532 14.0446 13.1892 14.4088 12.825C14.773 12.4608 15.237 12.2128 15.7422 12.1123C16.2473 12.0118 16.771 12.0634 17.2468 12.2605C17.7226 12.4576 18.1294 12.7914 18.4155 13.2196C18.7017 13.6479 18.8544 14.1514 18.8544 14.6664C18.8533 15.3568 18.5786 16.0185 18.0904 16.5066C17.6023 16.9948 16.9406 17.2695 16.2502 17.2706Z" fill="#4BADE6"/>
</svg>
