<svg width="15" height="11" viewBox="0 0 15 11" fill="none" xmlns="http://www.w3.org/2000/svg">
<path d="M13.1565 0.25H1.8435C1.55349 0.25 1.27535 0.365208 1.07028 0.570279C0.865208 0.77535 0.75 1.05349 0.75 1.3435V9.4795C0.75 9.6231 0.778284 9.7653 0.833238 9.89797C0.888191 10.0306 0.968738 10.1512 1.07028 10.2527C1.17182 10.3543 1.29237 10.4348 1.42504 10.4898C1.55771 10.5447 1.6999 10.573 1.8435 10.573H13.1565C13.3001 10.573 13.4423 10.5447 13.575 10.4898C13.7076 10.4348 13.8282 10.3543 13.9297 10.2527C14.0313 10.1512 14.1118 10.0306 14.1668 9.89797C14.2217 9.7653 14.25 9.6231 14.25 9.4795V1.3435C14.25 1.1999 14.2217 1.05771 14.1668 0.925036C14.1118 0.792366 14.0313 0.67182 13.9297 0.570279C13.8282 0.468738 13.7076 0.388191 13.575 0.333238C13.4423 0.278284 13.3001 0.25 13.1565 0.25ZM2.5185 1.6015H12.4815C12.592 1.6019 12.6978 1.64596 12.7759 1.72407C12.854 1.80219 12.8981 1.90803 12.8985 2.0185V3.133H2.0985V2.0185C2.0987 1.96354 2.10972 1.90916 2.13093 1.85846C2.15214 1.80776 2.18313 1.76174 2.22214 1.72301C2.26114 1.68429 2.30738 1.65363 2.35823 1.63278C2.40908 1.61193 2.46354 1.6013 2.5185 1.6015ZM12.4815 9.2215H2.5185C2.40803 9.22111 2.30219 9.17705 2.22407 9.09893C2.14596 9.02081 2.1019 8.91498 2.1015 8.8045V5.1865H12.9015V8.8045C12.9013 8.85946 12.8903 8.91384 12.8691 8.96454C12.8479 9.01524 12.8169 9.06126 12.7779 9.09999C12.7389 9.13871 12.6926 9.16937 12.6418 9.19022C12.5909 9.21107 12.5365 9.2217 12.4815 9.2215Z" fill="#242E39"/>
</svg>
