<svg width="29" height="30" viewBox="0 0 29 30" fill="none" xmlns="http://www.w3.org/2000/svg">
<rect x="0.25" y="0.75" width="28.5" height="28.5" rx="3.75" stroke="#6E6E6E" stroke-width="0.5"/>
<path d="M20.0563 9.00664H17.851V8.6918C17.851 7.95332 17.2503 7.35254 16.5118 7.35254H12.4879C11.7494 7.35254 11.1486 7.95332 11.1486 8.6918V9.00664H8.94339C8.6656 9.00695 8.39928 9.11743 8.20283 9.31384C8.00639 9.51025 7.89587 9.77656 7.89551 10.0543V10.5511C7.89551 11.0919 8.30742 11.5381 8.83374 11.5932L9.91273 21.0615C10.0156 21.9657 10.7797 22.6476 11.6899 22.6476H17.3096C18.2198 22.6476 18.9839 21.9657 19.0868 21.0615L20.1658 11.5932C20.4232 11.5658 20.6613 11.4442 20.8345 11.2519C21.0077 11.0595 21.1037 10.8099 21.104 10.5511V10.0543C21.1036 9.77656 20.9931 9.51025 20.7967 9.31384C20.6002 9.11743 20.3341 9.00695 20.0563 9.00664ZM11.8288 8.6918C11.829 8.51701 11.8985 8.34943 12.0221 8.22583C12.1457 8.10223 12.3133 8.03272 12.4881 8.03254H16.512C16.6867 8.03272 16.8543 8.10223 16.9779 8.22583C17.1015 8.34943 17.171 8.51701 17.1712 8.6918V9.00664H11.8288V8.6918ZM18.4114 20.9845C18.3807 21.2551 18.2514 21.5049 18.0483 21.6863C17.8451 21.8676 17.5823 21.9678 17.3099 21.9676H11.6902C11.4179 21.9678 11.1551 21.8676 10.9519 21.6863C10.7487 21.5049 10.6195 21.2551 10.5888 20.9845L9.51935 11.599H19.481L18.4114 20.9845ZM20.4243 10.5511C20.4242 10.6486 20.3854 10.7421 20.3164 10.8111C20.2475 10.88 20.154 10.9188 20.0565 10.919H8.94339C8.84586 10.9188 8.75237 10.88 8.68341 10.8111C8.61444 10.7421 8.57564 10.6486 8.57551 10.5511V10.0543C8.57551 9.85171 8.74058 9.68664 8.94339 9.68664H20.0561C20.2589 9.68664 20.424 9.85171 20.424 10.0543V10.5511H20.4243Z" fill="#6E6E6E"/>
<path d="M14.4997 20.1276C14.5899 20.1276 14.6764 20.0918 14.7401 20.028C14.8039 19.9642 14.8397 19.8778 14.8397 19.7876V13.7795C14.8397 13.6893 14.8039 13.6028 14.7401 13.539C14.6764 13.4753 14.5899 13.4395 14.4997 13.4395C14.4095 13.4395 14.3231 13.4753 14.2593 13.539C14.1955 13.6028 14.1597 13.6893 14.1597 13.7795V19.7876C14.1597 19.8778 14.1955 19.9642 14.2593 20.028C14.3231 20.0918 14.4095 20.1276 14.4997 20.1276ZM16.5322 20.1118C16.5767 20.1161 16.6215 20.1117 16.6642 20.0987C16.707 20.0857 16.7467 20.0645 16.7812 20.0361C16.8157 20.0077 16.8442 19.9729 16.8652 19.9335C16.8862 19.8941 16.8992 19.8509 16.9035 19.8065L17.4859 13.8265C17.4947 13.7368 17.4675 13.6472 17.4102 13.5776C17.353 13.5079 17.2704 13.4639 17.1806 13.4551C17.1361 13.4505 17.0912 13.4547 17.0483 13.4676C17.0055 13.4804 16.9656 13.5017 16.9311 13.5301C16.8965 13.5585 16.8679 13.5935 16.847 13.633C16.8261 13.6726 16.8132 13.7159 16.8092 13.7604L16.2268 19.7403C16.218 19.8301 16.2452 19.9196 16.3025 19.9893C16.3597 20.059 16.4425 20.103 16.5322 20.1118ZM12.4339 20.1135C12.4813 20.1135 12.5283 20.1036 12.5717 20.0844C12.6151 20.0652 12.654 20.0371 12.6859 20.002C12.7178 19.9668 12.742 19.9254 12.7569 19.8803C12.7718 19.8353 12.7771 19.7876 12.7725 19.7403L12.1901 13.7604C12.186 13.7159 12.1731 13.6726 12.1522 13.6331C12.1313 13.5935 12.1027 13.5586 12.0682 13.5302C12.0336 13.5018 11.9938 13.4805 11.9509 13.4676C11.9081 13.4547 11.8631 13.4505 11.8187 13.4551C11.7289 13.4639 11.6463 13.5079 11.5891 13.5776C11.5318 13.6472 11.5046 13.7368 11.5133 13.8265L12.0958 19.8065C12.1039 19.8905 12.1431 19.9684 12.2055 20.0251C12.268 20.0819 12.3495 20.1134 12.4339 20.1135Z" fill="#6E6E6E"/>
</svg>
