<svg width="20" height="19" viewBox="0 0 20 19" fill="none" xmlns="http://www.w3.org/2000/svg">
<path d="M14.5 0C12.7083 0.00275 11.03 0.876667 10 2.34263C9.49247 1.62019 8.81878 1.03029 8.03565 0.622606C7.25252 0.214922 6.38289 0.00139213 5.5 0C2.57 0 0 2.72608 0 5.83333C0 8.86167 1.71 11.9806 4.94533 14.8533C6.44442 16.1818 8.08872 17.3366 9.847 18.296C9.89431 18.3204 9.94677 18.3332 10 18.3332C10.0532 18.3332 10.1057 18.3204 10.153 18.296C11.9107 17.3365 13.5545 16.1817 15.053 14.8533C18.29 11.9806 20 8.86167 20 5.83333C20 2.72608 17.43 0 14.5 0ZM10 17.6209C8.77571 16.9453 0.666667 12.2253 0.666667 5.83333C0.666667 3.08104 2.925 0.666667 5.5 0.666667C7.24446 0.66975 8.8525 1.61083 9.70963 3.13037C9.77379 3.22833 9.88296 3.28729 10 3.28729C10.117 3.28729 10.2262 3.22833 10.2904 3.13037C11.1475 1.61083 12.7555 0.66975 14.5 0.666667C17.075 0.666667 19.3333 3.08104 19.3333 5.83333C19.3333 12.2253 11.2243 16.9453 10 17.6209Z" fill="#9AA4B2"/>
</svg>
