<svg width="18" height="17" viewBox="0 0 18 17" fill="none" xmlns="http://www.w3.org/2000/svg">
<path d="M9 16.4675C8.90895 16.4675 8.81793 16.444 8.73637 16.3969C8.64777 16.3458 6.54294 15.1237 4.4079 13.2823C3.14249 12.1909 2.13238 11.1084 1.40571 10.065C0.465348 8.7148 -0.00753804 7.41606 9.08466e-05 6.20483C0.00902052 4.79542 0.513828 3.46996 1.42163 2.47258C2.34476 1.45839 3.5767 0.899902 4.8906 0.899902C6.57447 0.899902 8.114 1.84314 9.00004 3.33735C9.88608 1.84318 11.4256 0.899902 13.1095 0.899902C14.3508 0.899902 15.5351 1.40383 16.4444 2.31888C17.4422 3.32304 18.0092 4.74187 17.9999 6.21151C17.9922 7.42063 17.5105 8.71741 16.5681 10.0658C15.8391 11.1087 14.8304 12.1906 13.57 13.2817C11.4428 15.1229 9.35304 16.345 9.26511 16.3961C9.1846 16.4429 9.09313 16.4675 9 16.4675Z" fill="#95D4ED"/>
</svg>
