<svg width="10" height="10" viewBox="0 0 10 10" fill="none" xmlns="http://www.w3.org/2000/svg">
<path d="M8.9602 5.94617H6.7002C7.5802 7.16617 7.3202 8.38617 7.3602 8.82617V8.84617C7.3602 9.38617 6.9402 9.82617 6.4002 9.82617C5.7402 9.82617 5.5202 9.26617 5.3002 8.68617C5.0402 8.00617 4.7002 7.14617 3.5802 6.60617L2.8602 6.22617V6.26617C2.8602 6.48617 2.6802 6.66617 2.4602 6.66617H1.2002C0.640195 6.66617 0.200195 6.22617 0.200195 5.66617V1.36617C0.200195 0.806172 0.640195 0.366172 1.2002 0.366172H2.4602C2.6802 0.366172 2.8602 0.546172 2.8602 0.766171V0.786172C3.2002 0.706172 3.4802 0.626172 3.7402 0.566172C4.5002 0.366172 5.0602 0.206172 5.8602 0.206172H7.9802C8.4402 0.206172 8.8202 0.586172 8.8202 1.06617C8.8202 1.26617 8.7602 1.44617 8.6402 1.58617C8.9602 1.70617 9.1802 2.02617 9.1802 2.38617C9.1802 2.58617 9.1202 2.76617 9.0002 2.90617C9.3202 3.02617 9.5402 3.34617 9.5402 3.70617C9.5402 3.92617 9.4602 4.10617 9.3402 4.26617C9.6202 4.40617 9.8202 4.70617 9.8202 5.04617C9.80019 5.56617 9.4202 5.94617 8.9602 5.94617ZM1.2002 0.786172C0.860195 0.786172 0.600195 1.04617 0.600195 1.38617V5.68617C0.600195 6.02617 0.860195 6.28617 1.2002 6.28617H2.4602V0.806172H1.2002V0.786172ZM8.9602 4.62617H7.7802C7.6602 4.62617 7.5802 4.54617 7.5802 4.42617C7.5802 4.30617 7.6602 4.22617 7.7802 4.22617H8.6802C8.9202 4.22617 9.1202 4.02617 9.1202 3.76617C9.1202 3.50617 8.9202 3.30617 8.6802 3.30617H7.4202C7.3002 3.30617 7.2202 3.22617 7.2202 3.10617C7.2202 2.98617 7.3002 2.90617 7.4202 2.90617H8.3202C8.56019 2.90617 8.7602 2.70617 8.7602 2.44617C8.7602 2.18617 8.56019 1.98617 8.3202 1.98617H7.0602C6.9402 1.98617 6.8602 1.90617 6.8602 1.78617C6.8602 1.44617 7.3602 1.62617 7.9602 1.58617C8.2002 1.58617 8.4002 1.38617 8.4002 1.12617C8.4002 0.866172 8.2002 0.626172 7.9602 0.626172H5.8402C5.0802 0.626172 4.5802 0.766171 3.8202 0.966172C3.5402 1.04617 3.2202 1.12617 2.8402 1.22617V5.78617L3.7602 6.22617C5.0202 6.84617 5.4002 7.82617 5.6802 8.52617C5.9202 9.12617 6.0402 9.40617 6.4002 9.40617C6.7002 9.40617 6.9402 9.14617 6.9602 8.84617C6.9202 8.34617 7.1602 7.26617 6.3602 6.16617L6.1402 5.86617C6.0402 5.74617 6.1402 5.54617 6.3002 5.54617H8.9602C9.2002 5.54617 9.4002 5.34617 9.4002 5.08617C9.4002 4.82617 9.2002 4.62617 8.9602 4.62617Z" fill="black"/>
</svg>
