<svg width="29" height="30" viewBox="0 0 29 30" fill="none" xmlns="http://www.w3.org/2000/svg">
<rect x="0.25" y="0.75" width="28.5" height="28.5" rx="3.75" stroke="#6E6E6E" stroke-width="0.5"/>
<g clip-path="url(#clip0_2170_1594)">
<path d="M21.6903 17.1398C21.4565 17.1398 21.2669 17.3295 21.2669 17.5637V21.3276C21.2661 22.0297 20.698 22.5987 19.9968 22.5994H8.11694C7.41568 22.5987 6.84762 22.0297 6.84678 21.3276V10.2807C6.84762 9.57876 7.41572 9.00982 8.11694 9.00897H11.8762C12.11 9.00897 12.2996 8.81918 12.2996 8.58505C12.2996 8.35105 12.11 8.16113 11.8762 8.16113H8.11694C6.9483 8.16245 6.00131 9.11062 6 10.2807V21.3278C6.00131 22.4978 6.9483 23.446 8.11694 23.4474H19.9968C21.1654 23.446 22.1124 22.4978 22.1137 21.3278V17.5637C22.1137 17.3295 21.9242 17.1398 21.6903 17.1398Z" fill="#6E6E6E"/>
<path d="M21.9465 7.07046C21.2024 6.32547 19.996 6.32547 19.252 7.07046L11.6984 14.6335C11.6467 14.6852 11.6093 14.7495 11.5898 14.8201L10.5965 18.4106C10.5764 18.4829 10.5759 18.5593 10.595 18.6318C10.614 18.7044 10.652 18.7706 10.705 18.8236C10.758 18.8767 10.8241 18.9147 10.8965 18.9338C10.969 18.953 11.0452 18.9525 11.1174 18.9324L14.7035 17.9377C14.774 17.9181 14.8382 17.8807 14.8899 17.8289L22.4432 10.2658C23.1861 9.52024 23.1861 8.31343 22.4432 7.56793L21.9465 7.07046ZM12.621 14.909L18.803 8.71912L20.7967 10.7154L14.6146 16.9052L12.621 14.909ZM12.2227 15.7091L13.8155 17.3041L11.6123 17.9153L12.2227 15.7091ZM21.8446 9.66632L21.3955 10.1158L19.4016 8.11945L19.8509 7.66988C20.2642 7.25605 20.9343 7.25605 21.3476 7.66988L21.8446 8.16731C22.2572 8.58165 22.2572 9.25216 21.8446 9.66632Z" fill="#6E6E6E"/>
</g>
<defs>
<clipPath id="clip0_2170_1594">
<rect width="17" height="17" fill="white" transform="translate(6 6.5)"/>
</clipPath>
</defs>
</svg>
