<svg width="24" height="23" viewBox="0 0 24 23" fill="none" xmlns="http://www.w3.org/2000/svg">
<g clip-path="url(#clip0_178_5409)">
<path d="M4.6312 19.6537H7.12841C7.5336 19.6537 7.86288 19.3239 7.86288 18.9192V16.422C7.86288 16.0168 7.53315 15.6875 7.12841 15.6875H4.6312C4.22601 15.6875 3.89673 16.0172 3.89673 16.422V18.9192C3.89673 19.3244 4.22646 19.6537 4.6312 19.6537ZM4.89849 16.6893H6.86112V18.6519H4.89849V16.6893Z" fill="#697586"/>
<path d="M17.0907 19.6537H19.5879C19.9931 19.6537 20.3224 19.3239 20.3224 18.9192V16.422C20.3224 16.0168 19.9927 15.6875 19.5879 15.6875H17.0907C16.6855 15.6875 16.3563 16.0172 16.3563 16.422V18.9192C16.3563 19.3244 16.686 19.6537 17.0907 19.6537ZM17.358 16.6893H19.3207V18.6519H17.358V16.6893Z" fill="#697586"/>
<path d="M10.8609 19.6537H13.3581C13.7633 19.6537 14.0926 19.3239 14.0926 18.9192V16.422C14.0926 16.0168 13.7629 15.6875 13.3581 15.6875H10.8609C10.4557 15.6875 10.1265 16.0172 10.1265 16.422V18.9192C10.1265 19.3244 10.4562 19.6537 10.8609 19.6537ZM11.1282 16.6893H13.0909V18.6519H11.1282V16.6893Z" fill="#697586"/>
<path d="M21.8969 3.33588H20.3112V2.72898C20.3112 1.7133 19.4846 0.886738 18.4689 0.886738H18.3157C17.3001 0.886738 16.4735 1.7133 16.4735 2.72898V3.33588H14.2961V2.60006C14.2961 1.58438 13.4696 0.757812 12.4539 0.757812H12.3007C11.285 0.757812 10.4585 1.58438 10.4585 2.60006V3.33588H8.2811V2.68631C8.2811 1.67062 7.45454 0.844063 6.43885 0.844063H6.28567C5.26999 0.844063 4.44342 1.67062 4.44342 2.68631V3.33588H2.85768C1.76518 3.33588 0.877075 4.22398 0.877075 5.31603V20.262C0.877075 21.354 1.76518 22.2421 2.85723 22.2421H21.8969C22.989 22.2421 23.8771 21.354 23.8771 20.262V5.31603C23.8771 4.22398 22.989 3.33588 21.8969 3.33588ZM17.4753 2.72898C17.4753 2.26584 17.8522 1.8885 18.3153 1.8885H18.4685C18.9316 1.8885 19.3085 2.26539 19.3085 2.72898V3.33588H17.4748V2.72898H17.4753ZM11.4602 2.60006C11.4602 2.13691 11.8371 1.75957 12.3003 1.75957H12.4534C12.9166 1.75957 13.2935 2.13646 13.2935 2.60006V3.33588H11.4598V2.60006H11.4602ZM5.44518 2.68586C5.44518 2.22271 5.82208 1.84537 6.28522 1.84537H6.4384C6.90155 1.84537 7.27844 2.22227 7.27844 2.68586V3.33543H5.44473V2.68586H5.44518ZM22.8753 20.262C22.8753 20.8015 22.4364 21.2404 21.8969 21.2404H2.85723C2.31772 21.2404 1.87883 20.8015 1.87883 20.262V8.43721H22.8749V20.262H22.8753ZM22.8753 7.43545H1.87883V5.31603C1.87883 4.77652 2.31772 4.33764 2.85723 4.33764H7.27889V4.72936C7.27889 5.1925 6.902 5.56984 6.43885 5.56984C6.16213 5.56984 5.93797 5.794 5.93797 6.07072C5.93797 6.34744 6.16213 6.5716 6.43885 6.5716C7.45454 6.5716 8.2811 5.74504 8.2811 4.72936V4.33764H13.2944V4.64355C13.2944 5.1067 12.9175 5.48404 12.4543 5.48404C12.1776 5.48404 11.9535 5.7082 11.9535 5.98492C11.9535 6.26164 12.1776 6.4858 12.4543 6.4858C13.47 6.4858 14.2966 5.65924 14.2966 4.64355V4.33764H19.3099V4.77248C19.3099 5.23562 18.933 5.61252 18.4698 5.61252C18.1931 5.61252 17.969 5.83668 17.969 6.1134C17.969 6.39012 18.1931 6.61428 18.4698 6.61428C19.4855 6.61428 20.3121 5.78771 20.3121 4.77203V4.33719H21.8978C22.4373 4.33719 22.8762 4.77607 22.8762 5.31559V7.435L22.8753 7.43545Z" fill="#697586"/>
<path d="M4.6312 13.9749H7.12841C7.5336 13.9749 7.86288 13.6452 7.86288 13.2405V10.7433C7.86288 10.3381 7.53315 10.0088 7.12841 10.0088H4.6312C4.22601 10.0088 3.89673 10.3385 3.89673 10.7433V13.2405C3.89673 13.6457 4.22646 13.9749 4.6312 13.9749ZM4.89849 11.0105H6.86112V12.9732H4.89849V11.0105Z" fill="#697586"/>
<path d="M17.0907 13.9749H19.5879C19.9931 13.9749 20.3224 13.6452 20.3224 13.2405V10.7433C20.3224 10.3381 19.9927 10.0088 19.5879 10.0088H17.0907C16.6855 10.0088 16.3563 10.3385 16.3563 10.7433V13.2405C16.3563 13.6457 16.686 13.9749 17.0907 13.9749ZM17.358 11.0105H19.3207V12.9732H17.358V11.0105Z" fill="#697586"/>
<path d="M10.8609 13.9749H13.3581C13.7633 13.9749 14.0926 13.6452 14.0926 13.2405V10.7433C14.0926 10.3381 13.7629 10.0088 13.3581 10.0088H10.8609C10.4557 10.0088 10.1265 10.3385 10.1265 10.7433V13.2405C10.1265 13.6457 10.4562 13.9749 10.8609 13.9749ZM11.1282 11.0105H13.0909V12.9732H11.1282V11.0105Z" fill="#697586"/>
</g>
<defs>
<clipPath id="clip0_178_5409">
<rect width="23" height="23" fill="white" transform="translate(0.877075)"/>
</clipPath>
</defs>
</svg>
