<svg width="48" height="48" viewBox="0 0 48 48" fill="none" xmlns="http://www.w3.org/2000/svg">
<path d="M24 0.5C36.9787 0.5 47.5 11.0213 47.5 24C47.5 36.9787 36.9787 47.5 24 47.5C11.0213 47.5 0.5 36.9787 0.5 24C0.5 11.0213 11.0213 0.5 24 0.5Z" stroke="#4BADE6"/>
<g clip-path="url(#clip0_1604_1481)">
<path d="M34.9837 20.7408C34.5921 20.3513 33.9589 20.353 33.5694 20.7445L21.5481 32.8308C19.9885 34.3905 17.4555 34.3905 15.8929 32.8287C14.3316 31.2666 14.3316 28.7335 15.8931 27.172L28.2702 14.7299C29.244 13.7562 30.827 13.7562 31.8035 14.732C32.7798 15.7082 32.7798 17.2911 31.8033 18.2676L21.55 28.5208L21.5481 28.5229C21.1575 28.9114 20.5262 28.9108 20.1364 28.521C19.7459 28.1305 19.7459 27.4977 20.1364 27.1072L25.0856 22.157C25.4761 21.7664 25.476 21.1332 25.0854 20.7427C24.6949 20.3522 24.0617 20.3523 23.6712 20.7429L18.7221 25.693C17.5506 26.8645 17.5506 28.7637 18.7221 29.9352C19.8937 31.1067 21.7929 31.1067 22.9645 29.9352C22.9658 29.9339 22.9669 29.9324 22.9682 29.931L33.2175 19.6818C34.9751 17.9242 34.9751 15.075 33.2175 13.3174C31.4597 11.5609 28.6107 11.5609 26.8541 13.3174L14.477 25.7596C12.1363 28.1003 12.1363 31.8994 14.4787 34.243C16.8226 36.5857 20.6218 36.5857 22.9643 34.2432L34.9875 22.155C35.3769 21.7634 35.3752 21.1302 34.9837 20.7408Z" fill="#4BADE6"/>
</g>
<defs>
<clipPath id="clip0_1604_1481">
<rect width="24" height="24" fill="white" transform="translate(12 12)"/>
</clipPath>
</defs>
</svg>
