<svg width="45" height="46" viewBox="0 0 45 46" fill="none" xmlns="http://www.w3.org/2000/svg">
<path d="M17.7 21.6078C23.652 21.6078 28.5 16.7598 28.5 10.8078C28.5 4.85581 23.652 0.0078125 17.7 0.0078125C11.748 0.0078125 6.89999 4.85581 6.89999 10.8078C6.89999 16.7598 11.748 21.6078 17.7 21.6078ZM17.7 4.80781C19.2913 4.80781 20.8174 5.43995 21.9426 6.56517C23.0679 7.69039 23.7 9.21651 23.7 10.8078C23.7 12.3991 23.0679 13.9252 21.9426 15.0505C20.8174 16.1757 19.2913 16.8078 17.7 16.8078C16.1087 16.8078 14.5826 16.1757 13.4574 15.0505C12.3321 13.9252 11.7 12.3991 11.7 10.8078C11.7 9.21651 12.3321 7.69039 13.4574 6.56517C14.5826 5.43995 16.1087 4.80781 17.7 4.80781ZM24.9 24.0078H10.5C5.19599 24.0078 0.899994 28.3038 0.899994 33.6078V36.0078C0.899994 41.3118 5.19599 45.6078 10.5 45.6078H24.9C30.204 45.6078 34.5 41.3118 34.5 36.0078V33.6078C34.5 28.3038 30.204 24.0078 24.9 24.0078ZM29.7 36.0078C29.7 38.6478 27.54 40.8078 24.9 40.8078H10.5C7.85999 40.8078 5.69999 38.6478 5.69999 36.0078V33.6078C5.69999 30.9678 7.85999 28.8078 10.5 28.8078H24.9C27.54 28.8078 29.7 30.9678 29.7 33.6078V36.0078ZM41.7 16.8078H39.276V14.0238C39.276 12.7038 38.196 11.6238 36.876 11.6238C35.556 11.6238 34.476 12.7038 34.476 14.0238V16.8078H32.1C30.78 16.8078 29.7 17.8878 29.7 19.2078C29.7 20.5278 30.78 21.6078 32.1 21.6078H34.476V24.3918C34.476 25.7118 35.556 26.7918 36.876 26.7918C38.196 26.7918 39.276 25.7118 39.276 24.3918V21.6078H41.7C43.02 21.6078 44.1 20.5278 44.1 19.2078C44.1 17.8878 43.02 16.8078 41.7 16.8078Z" fill="#4D80B3"/>
</svg>
