<svg width="43" height="42" viewBox="0 0 43 42" fill="none" xmlns="http://www.w3.org/2000/svg">
<rect x="1" y="0.5" width="41" height="41" rx="20.5" fill="white" stroke="#F6F6F6"/>
<path d="M28.75 20.9375C28.75 20.4375 28.6875 20.0625 28.625 19.6562H21.25V22.3125H25.625C25.4688 23.4688 24.3125 25.6562 21.25 25.6562C18.5938 25.6562 16.4375 23.4688 16.4375 20.75C16.4375 16.4062 21.5625 14.4062 24.3125 17.0625L26.4375 15.0312C25.0938 13.7812 23.3125 13 21.25 13C16.9375 13 13.5 16.4688 13.5 20.75C13.5 25.0625 16.9375 28.5 21.25 28.5C25.7188 28.5 28.75 25.375 28.75 20.9375Z" fill="#080E1E"/>
</svg>
