<svg width="18" height="18" viewBox="0 0 18 18" fill="none" xmlns="http://www.w3.org/2000/svg">
<path d="M7.15338 0C5.28003 0 3.73957 1.64647 3.73957 3.70588C3.73957 5.76529 5.28003 7.41176 7.15433 7.41176C8.73199 7.41176 10.0731 6.24388 10.4575 4.64506C10.6268 5.28578 10.9967 5.83826 11.5007 6.20279C12.0046 6.56732 12.6094 6.7199 13.2058 6.633C13.8022 6.5461 14.3509 6.22544 14.7531 5.72889C15.1552 5.23234 15.3842 4.59258 15.3988 3.92507C15.4133 3.25756 15.2125 2.60626 14.8325 2.08867C14.4525 1.57108 13.9184 1.22131 13.3265 1.10246C12.7346 0.983606 12.1239 1.10351 11.6046 1.44052C11.0854 1.77754 10.6917 2.30948 10.4947 2.94035C10.1675 1.25153 8.78731 0 7.15338 0ZM4.69341 3.70588C4.69341 2.25635 5.78366 1.05882 7.15433 1.05882C8.52405 1.05882 9.61334 2.25635 9.61334 3.70588C9.61334 5.15541 8.52405 6.35294 7.15338 6.35294C5.78366 6.35294 4.69341 5.15541 4.69341 3.70588ZM11.3093 3.85729C11.3093 3.39591 11.4744 2.95343 11.7683 2.62718C12.0622 2.30093 12.4608 2.11765 12.8764 2.11765C13.2921 2.11765 13.6907 2.30093 13.9846 2.62718C14.2785 2.95343 14.4436 3.39591 14.4436 3.85729C14.4436 4.31868 14.2785 4.76116 13.9846 5.08741C13.6907 5.41366 13.2921 5.59694 12.8764 5.59694C12.4608 5.59694 12.0622 5.41366 11.7683 5.08741C11.4744 4.76116 11.3093 4.31868 11.3093 3.85729ZM5.38876 8.91212C5.0387 8.66118 4.55511 8.48224 4.05911 8.63365C3.90649 8.68094 3.75451 8.73106 3.60317 8.784L2.66363 9.11859C1.56194 9.51035 0.713975 10.4781 0.426868 11.7L0.420191 11.7286L0.0224378 14.8384C-0.122547 15.9734 0.441175 17.1212 1.53714 17.4039C2.66077 17.6929 4.48261 18 7.15338 18C9.82414 18 11.646 17.6929 12.7696 17.4039C13.8665 17.1212 14.4293 15.9734 14.2843 14.8384L13.8866 11.7286L13.8799 11.7C13.5937 10.4781 12.7448 9.50929 11.6431 9.11859L10.7045 8.784C10.5532 8.73037 10.4009 8.68024 10.2476 8.63365C9.75165 8.48224 9.26805 8.66118 8.91894 8.91212C8.54313 9.18106 7.92218 9.51459 7.15433 9.51459C6.38649 9.51459 5.76363 9.18212 5.38876 8.91212ZM4.31187 9.65329C4.45972 9.60776 4.66194 9.65012 4.87083 9.79941C5.33726 10.1351 6.13849 10.5724 7.15338 10.5724C8.16922 10.5724 8.97045 10.1351 9.43688 9.79941C9.64482 9.65118 9.84703 9.60882 9.99488 9.65329C10.1348 9.69565 10.2744 9.74153 10.4136 9.79094L11.3522 10.1255C12.1468 10.4082 12.7429 11.0944 12.9499 11.9372L13.341 14.9866C13.4268 15.66 13.0996 16.2307 12.554 16.3715C11.5077 16.6405 9.75928 16.9401 7.15338 16.9401C4.54747 16.9401 2.80003 16.6405 1.75271 16.3715C1.20807 16.2307 0.880898 15.66 0.966744 14.9866L1.35782 11.9372C1.56385 11.0944 2.15905 10.4082 2.95455 10.1255L3.89409 9.792C4.03272 9.74259 4.17198 9.69671 4.31187 9.65435M14.9587 7.19788C14.8084 7.15625 14.6514 7.1539 14.5001 7.19102C14.3488 7.22813 14.2074 7.30369 14.0869 7.41176C13.8293 7.63412 13.3734 7.94118 12.8764 7.94118C12.75 7.94118 12.6286 7.99695 12.5392 8.09624C12.4498 8.19552 12.3995 8.33018 12.3995 8.47059C12.3995 8.611 12.4498 8.74566 12.5392 8.84494C12.6286 8.94422 12.75 9 12.8764 9C13.6948 9 14.3606 8.51612 14.6725 8.24824C14.6841 8.2361 14.6982 8.22737 14.7135 8.22282H14.7174C14.8452 8.26023 14.972 8.30188 15.0979 8.34776L15.7513 8.586C16.253 8.76918 16.6336 9.21494 16.7681 9.76553L17.0381 11.9351C17.0915 12.3618 16.8893 12.6815 16.5993 12.7578C16.3863 12.8156 16.1278 12.8721 15.8238 12.9272C15.7619 12.9383 15.7026 12.9628 15.6493 12.9994C15.596 13.036 15.5497 13.0838 15.513 13.1403C15.4763 13.1967 15.45 13.2606 15.4356 13.3283C15.4212 13.396 15.4189 13.4663 15.4289 13.5349C15.439 13.6036 15.4611 13.6695 15.494 13.7287C15.5269 13.7879 15.5701 13.8393 15.6209 13.88C15.6717 13.9207 15.7293 13.9499 15.7903 13.9659C15.8513 13.9819 15.9146 13.9844 15.9764 13.9733C16.302 13.9133 16.5831 13.8515 16.8196 13.788C17.6733 13.5625 18.0911 12.6551 17.9833 11.79L17.7058 9.56012L17.6991 9.53153C17.5946 9.07816 17.3885 8.6615 17.1 8.32031C16.8115 7.97912 16.4499 7.72449 16.0489 7.58012L15.3955 7.34188C15.2512 7.28906 15.1056 7.24104 14.9587 7.19788Z" fill="#6E6E6E"/>
</svg>
