<svg width="26" height="24" viewBox="0 0 26 24" fill="none" xmlns="http://www.w3.org/2000/svg">
<path d="M12.0641 3.76546L2.03528 14.3806C1.83478 14.5928 1.50198 14.5962 1.29735 14.3881L0.274264 13.3479C0.0753706 13.1456 0.0721515 12.8187 0.267021 12.6125L11.8778 0.322775C12.2844 -0.10758 12.9615 -0.10758 13.3681 0.322775L24.9789 12.6125C25.1738 12.8187 25.1705 13.1456 24.9716 13.3479L23.9485 14.3881C23.7439 14.5962 23.4111 14.5928 23.2106 14.3806L13.1818 3.76546C12.8769 3.44267 12.369 3.44267 12.0641 3.76546Z" stroke="#4BADE6" stroke-width="1.5" stroke-miterlimit="10" stroke-linecap="round" stroke-linejoin="round"/>
<path d="M9.55746 24V19.273C9.55746 17.5515 10.9299 16.156 12.6229 16.156C14.3159 16.156 15.6884 17.5515 15.6884 19.273V24H9.55746Z" stroke="#4BADE6" stroke-width="1.5" stroke-miterlimit="10" stroke-linecap="round" stroke-linejoin="round"/>
<path d="M21.7934 22.8443C21.7934 23.4825 21.2846 24 20.6568 24H4.58898C3.96127 24 3.45236 23.4825 3.45236 22.8443V12.8806L12.064 3.76543C12.369 3.44264 12.8768 3.44264 13.1818 3.76543L21.7934 12.8806V22.8443Z" stroke="#4BADE6" stroke-width="1.5" stroke-miterlimit="10" stroke-linecap="round" stroke-linejoin="round"/>
</svg>
