<svg width="20" height="22" viewBox="0 0 20 22" fill="none" xmlns="http://www.w3.org/2000/svg">
<g clip-path="url(#clip0_39_1357)">
<path d="M19.5186 9.69652C19.518 9.69608 19.5175 9.69546 19.517 9.69499L11.3427 1.52098C10.9942 1.17233 10.531 0.980469 10.0382 0.980469C9.54548 0.980469 9.08223 1.17233 8.73366 1.52094L0.563526 9.69084C0.560786 9.69358 0.55789 9.69648 0.555307 9.69925C-0.160231 10.4189 -0.158979 11.5865 0.558829 12.3043C0.886735 12.6324 1.31969 12.8223 1.78282 12.8423C1.80176 12.8441 1.82075 12.845 1.83985 12.845H2.16548V18.8605C2.16548 20.051 3.13417 21.0196 4.3247 21.0196H7.52278C7.84705 21.0196 8.10987 20.7566 8.10987 20.4325V15.7163C8.10987 15.1731 8.55186 14.7312 9.09507 14.7312H10.9814C11.5246 14.7312 11.9664 15.1731 11.9664 15.7163V20.4325C11.9664 20.7566 12.2292 21.0196 12.5535 21.0196H15.7516C16.9423 21.0196 17.9108 20.0511 17.9108 18.8605V12.845H18.2129C18.7055 12.845 19.1688 12.6531 19.5175 12.3044C20.2361 11.5856 20.2364 10.4158 19.5186 9.69648L19.5186 9.69652ZM18.6872 11.4743C18.625 11.5368 18.5511 11.5863 18.4697 11.6201C18.3883 11.6538 18.301 11.6711 18.2129 11.6709H17.3237C16.9994 11.6709 16.7366 11.9337 16.7366 12.258V18.8605C16.7366 19.4036 16.2948 19.8454 15.7515 19.8454H13.1406V15.7163C13.1406 14.5258 12.172 13.5571 10.9813 13.5571H9.09511C7.90443 13.5571 6.93574 14.5258 6.93574 15.7163V19.8454H4.32478C3.78169 19.8454 3.33969 19.4036 3.33969 18.8605V12.258C3.33969 11.9337 3.07687 11.6709 2.75261 11.6709H1.87867C1.86951 11.6702 1.86034 11.6698 1.85116 11.6696C1.67625 11.6666 1.51222 11.5972 1.38932 11.4741C1.12787 11.2126 1.12787 10.7872 1.38932 10.5256C1.38944 10.5256 1.38944 10.5254 1.38959 10.5253L1.39006 10.5248L9.56411 2.35111C9.6262 2.28861 9.70009 2.23906 9.78148 2.20533C9.86286 2.1716 9.95014 2.15437 10.0382 2.15464C10.2173 2.15464 10.3856 2.22434 10.5123 2.35111L18.6845 10.5232L18.6884 10.5268C18.9485 10.7888 18.948 11.2133 18.6872 11.4743Z" fill="black"/>
</g>
<defs>
<clipPath id="clip0_39_1357">
<rect width="20" height="20.04" fill="white" transform="translate(0 0.980469)"/>
</clipPath>
</defs>
</svg>
