<svg width="17" height="16" viewBox="0 0 17 16" fill="none" xmlns="http://www.w3.org/2000/svg">
<path d="M13.55 6.4C15.3146 6.4 16.75 4.96458 16.75 3.2C16.75 1.43542 15.3146 0 13.55 0C12.2686 0 11.1638 0.758724 10.6533 1.84909L9.79635 1.53281C9.80651 1.46719 9.81667 1.40156 9.81667 1.33333C9.81667 0.598177 9.21849 0 8.48333 0C7.74818 0 7.15 0.598177 7.15 1.33333C7.15 2.06849 7.74818 2.66667 8.48333 2.66667C8.96094 2.66667 9.37747 2.41198 9.61289 2.03359L10.4684 2.34935C10.3932 2.62083 10.35 2.90508 10.35 3.2C10.35 3.54935 10.4081 3.88477 10.5121 4.19974L7.5793 5.44271C7.04232 4.42747 5.97643 3.73333 4.75 3.73333C4.3526 3.73333 3.97344 3.80964 3.62201 3.94245L2.88438 2.39232C3.20573 2.14857 3.41667 1.76667 3.41667 1.33333C3.41667 0.598177 2.81849 0 2.08333 0C1.34818 0 0.75 0.598177 0.75 1.33333C0.75 2.06849 1.34818 2.66667 2.08333 2.66667C2.19427 2.66667 2.30065 2.64909 2.40391 2.62318L3.14063 4.17174C2.19102 4.72747 1.55 5.75573 1.55 6.93333C1.55 8.03945 2.11432 9.01576 2.96979 9.59063L2.48203 10.4674C2.35508 10.4275 2.22305 10.4 2.08333 10.4C1.34818 10.4 0.75 10.9982 0.75 11.7333C0.75 12.4685 1.34818 13.0667 2.08333 13.0667C2.81849 13.0667 3.41667 12.4685 3.41667 11.7333C3.41667 11.3296 3.23242 10.9715 2.94818 10.727L3.43698 9.84831C3.83802 10.0298 4.28177 10.1333 4.75 10.1333C5.48177 10.1333 6.15482 9.88372 6.69453 9.46875L7.74414 10.6234C7.21185 11.1952 6.88333 11.959 6.88333 12.8C6.88333 12.9632 6.89961 13.1221 6.92305 13.2786L5.68815 13.5717C5.47565 13.1173 5.01719 12.8 4.48333 12.8C3.74818 12.8 3.15 13.3982 3.15 14.1333C3.15 14.8685 3.74818 15.4667 4.48333 15.4667C5.21849 15.4667 5.81667 14.8685 5.81667 14.1333C5.81667 14.1186 5.81263 14.1048 5.81237 14.0901L7.04492 13.7979C7.46523 15.0749 8.66732 16 10.0833 16C11.8479 16 13.2833 14.5646 13.2833 12.8C13.2833 12.2529 13.1449 11.7376 12.9017 11.287L14.4681 10.2685C14.7103 10.5138 15.0457 10.6667 15.4167 10.6667C16.1518 10.6667 16.75 10.0685 16.75 9.33333C16.75 8.59818 16.1518 8 15.4167 8C14.6815 8 14.0833 8.59818 14.0833 9.33333C14.0833 9.5056 14.1188 9.66927 14.1785 9.82057L12.6085 10.8413C12.2943 10.4374 11.8863 10.1112 11.4167 9.89466L12.7182 6.28646C12.9839 6.35807 13.262 6.4 13.55 6.4ZM8.48333 2.13333C8.04232 2.13333 7.68333 1.77435 7.68333 1.33333C7.68333 0.892318 8.04232 0.533333 8.48333 0.533333C8.92435 0.533333 9.28333 0.892318 9.28333 1.33333C9.28333 1.77435 8.92435 2.13333 8.48333 2.13333ZM1.28333 1.33333C1.28333 0.892318 1.64232 0.533333 2.08333 0.533333C2.52435 0.533333 2.88333 0.892318 2.88333 1.33333C2.88333 1.77435 2.52435 2.13333 2.08333 2.13333C1.64232 2.13333 1.28333 1.77435 1.28333 1.33333ZM2.08333 12.5333C1.64232 12.5333 1.28333 12.1743 1.28333 11.7333C1.28333 11.2923 1.64232 10.9333 2.08333 10.9333C2.52435 10.9333 2.88333 11.2923 2.88333 11.7333C2.88333 12.1743 2.52435 12.5333 2.08333 12.5333ZM4.48333 14.9333C4.04232 14.9333 3.68333 14.5743 3.68333 14.1333C3.68333 13.6923 4.04232 13.3333 4.48333 13.3333C4.92435 13.3333 5.28333 13.6923 5.28333 14.1333C5.28333 14.5743 4.92435 14.9333 4.48333 14.9333ZM15.4167 8.53333C15.8577 8.53333 16.2167 8.89232 16.2167 9.33333C16.2167 9.77435 15.8577 10.1333 15.4167 10.1333C14.9757 10.1333 14.6167 9.77435 14.6167 9.33333C14.6167 8.89232 14.9757 8.53333 15.4167 8.53333ZM11.9796 5.35039C12.0986 4.73359 12.6423 4.26667 13.2833 4.26667H13.8167C14.4577 4.26667 15.0014 4.73359 15.1204 5.35039C14.6793 5.67331 14.1375 5.86667 13.55 5.86667C12.9625 5.86667 12.4207 5.67331 11.9796 5.35039ZM13.55 3.73333C13.109 3.73333 12.75 3.37435 12.75 2.93333C12.75 2.49232 13.109 2.13333 13.55 2.13333C13.991 2.13333 14.35 2.49232 14.35 2.93333C14.35 3.37435 13.991 3.73333 13.55 3.73333ZM13.55 0.533333C15.0204 0.533333 16.2167 1.72956 16.2167 3.2C16.2167 3.86667 15.9689 4.47578 15.5628 4.94375C15.3759 4.45169 14.9863 4.05898 14.5009 3.8651C14.737 3.62448 14.8833 3.29596 14.8833 2.93333C14.8833 2.19818 14.2852 1.6 13.55 1.6C12.8148 1.6 12.2167 2.19818 12.2167 2.93333C12.2167 3.29596 12.363 3.62448 12.5991 3.8651C12.1137 4.05898 11.7241 4.45169 11.5372 4.94375C11.1311 4.47578 10.8833 3.86667 10.8833 3.2C10.8833 1.72956 12.0796 0.533333 13.55 0.533333ZM2.08333 6.93333C2.08333 5.46289 3.27956 4.26667 4.75 4.26667C6.22044 4.26667 7.41667 5.46289 7.41667 6.93333C7.41667 7.60208 7.16732 8.21276 6.75911 8.68138C6.57292 8.1875 6.18255 7.79284 5.69583 7.59844C5.93164 7.35781 6.078 7.0293 6.078 6.66667C6.078 5.93151 5.47982 5.33333 4.74466 5.33333C4.00951 5.33333 3.41133 5.93151 3.41133 6.66667C3.41133 7.0293 3.55768 7.35781 3.79375 7.59844C3.30977 7.79141 2.9207 8.18268 2.7332 8.67279C2.32943 8.20534 2.08333 7.59818 2.08333 6.93333ZM3.94466 6.66667C3.94466 6.22565 4.30365 5.86667 4.74466 5.86667C5.18568 5.86667 5.54466 6.22565 5.54466 6.66667C5.54466 7.10768 5.18568 7.46667 4.74466 7.46667C4.30365 7.46667 3.94466 7.10768 3.94466 6.66667ZM3.17513 9.08021C3.29531 8.46511 3.83828 8 4.47799 8H5.01133C5.65352 8 6.19831 8.46849 6.31563 9.08724C5.87539 9.4082 5.33529 9.6 4.75 9.6C4.16042 9.6 3.61693 9.40534 3.17513 9.08021ZM8.50846 14.9469C8.62865 14.3318 9.17161 13.8667 9.81133 13.8667H10.3447C10.9868 13.8667 11.5316 14.3352 11.649 14.9539C11.2087 15.2749 10.6686 15.4667 10.0833 15.4667C9.49375 15.4667 8.95026 15.272 8.50846 14.9469ZM10.078 13.3333C9.63698 13.3333 9.278 12.9743 9.278 12.5333C9.278 12.0923 9.63698 11.7333 10.078 11.7333C10.519 11.7333 10.878 12.0923 10.878 12.5333C10.878 12.9743 10.519 13.3333 10.078 13.3333ZM12.75 12.8C12.75 13.4688 12.5007 14.0794 12.0924 14.548C11.9063 14.0542 11.5159 13.6595 11.0292 13.4651C11.265 13.2245 11.4113 12.896 11.4113 12.5333C11.4113 11.7982 10.8132 11.2 10.078 11.2C9.34284 11.2 8.74466 11.7982 8.74466 12.5333C8.74466 12.896 8.89102 13.2245 9.12708 13.4651C8.6431 13.6581 8.25404 14.0493 8.06654 14.5395C7.66276 14.072 7.41667 13.4648 7.41667 12.8C7.41667 11.3296 8.61289 10.1333 10.0833 10.1333C11.5538 10.1333 12.75 11.3296 12.75 12.8ZM10.9151 9.71354C10.6495 9.64193 10.3714 9.6 10.0833 9.6C9.35156 9.6 8.67852 9.84961 8.1388 10.2646L7.08919 9.1099C7.62148 8.53815 7.95 7.77435 7.95 6.93333C7.95 6.58398 7.89193 6.24857 7.78789 5.93359L10.7207 4.69063C11.0492 5.31172 11.5764 5.81016 12.2169 6.10534L10.9151 9.71354Z" fill="white"/>
</svg>
