<svg width="15" height="14" viewBox="0 0 15 14" fill="none" xmlns="http://www.w3.org/2000/svg">
<path d="M14.75 7C14.75 5.13023 14.0219 3.37239 12.6998 2.05023C11.3776 0.728137 9.61977 0 7.75 0C6.37855 0 5.06752 0.392219 3.94427 1.12276C3.71773 0.914156 3.41558 0.786488 3.08409 0.786488C2.38319 0.786488 1.81296 1.35671 1.81296 2.05762C1.81296 2.36313 1.92135 2.64378 2.10166 2.86325C1.22422 4.05601 0.75 5.4915 0.75 7C0.75 8.86977 1.47814 10.6276 2.80023 11.9498C4.12239 13.2719 5.88023 14 7.75 14C9.12145 14 10.4324 13.6078 11.5557 12.8772C11.7823 13.0858 12.0844 13.2135 12.4159 13.2135C13.1168 13.2135 13.687 12.6433 13.687 11.9424C13.687 11.6369 13.5786 11.3562 13.3983 11.1368C14.2758 9.94399 14.75 8.5085 14.75 7ZM12.8667 11.9424C12.8667 12.191 12.6645 12.3932 12.4159 12.3932C12.1673 12.3932 11.9651 12.191 11.9651 11.9424C11.9651 11.6938 12.1673 11.4916 12.4159 11.4916C12.6645 11.4916 12.8667 11.6938 12.8667 11.9424ZM12.4159 10.6713C11.715 10.6713 11.1448 11.2415 11.1448 11.9424C11.1448 12.013 11.1508 12.0822 11.162 12.1497C10.6203 12.5098 10.0188 12.7867 9.37594 12.9622C9.59641 12.6457 9.79813 12.2606 9.97625 11.8107C10.2022 11.24 10.3832 10.5877 10.515 9.88135H13.2154C13.0631 10.1691 12.889 10.4437 12.6948 10.7024C12.6049 10.6822 12.5117 10.6713 12.4159 10.6713ZM6.28648 11.5087C6.16997 11.2144 6.06639 10.8957 5.97629 10.557C6.22796 10.4034 6.42202 10.1647 6.5189 9.88135H9.68022C9.56141 10.4765 9.40484 11.0255 9.21352 11.5087C8.79926 12.555 8.25217 13.1797 7.75 13.1797C7.24783 13.1797 6.70071 12.555 6.28648 11.5087ZM1.92417 9.06104C1.69533 8.41608 1.57031 7.72242 1.57031 7C1.57031 6.31252 1.6833 5.65097 1.89141 5.03278H4.84568C4.77 5.66344 4.73078 6.32458 4.73078 7C4.73078 7.44726 4.74804 7.88823 4.78162 8.31827C4.46932 8.46363 4.22569 8.73209 4.1132 9.06104H1.92417ZM2.63327 2.05762C2.63327 1.80904 2.83551 1.6068 3.08409 1.6068C3.33267 1.6068 3.53491 1.80904 3.53491 2.05762C3.53491 2.3062 3.33267 2.50843 3.08409 2.50843C2.83551 2.50843 2.63327 2.3062 2.63327 2.05762ZM3.08409 3.32875C3.78499 3.32875 4.35522 2.75852 4.35522 2.05762C4.35522 1.98699 4.34918 1.91781 4.33805 1.8503C4.87973 1.49021 5.48115 1.21335 6.12409 1.0378C5.90364 1.35425 5.7019 1.73939 5.52378 2.18928C5.28786 2.78518 5.10096 3.46998 4.96794 4.21244H2.23575C2.39927 3.8903 2.59002 3.58427 2.80527 3.29755C2.89506 3.31775 2.98828 3.32875 3.08409 3.32875ZM9.21352 2.49126C9.33933 2.80902 9.44999 3.15544 9.5449 3.5245C9.28303 3.67746 9.08066 3.92126 8.98107 4.21247H5.80154C5.92237 3.58113 6.08512 2.99975 6.28645 2.49126C6.70071 1.44498 7.24783 0.820312 7.75 0.820312C8.25217 0.820312 8.79926 1.44498 9.21352 2.49126ZM13.6086 5.03278C13.8167 5.65097 13.9297 6.31252 13.9297 7C13.9297 7.72242 13.8047 8.41608 13.5758 9.06104H10.6426C10.7258 8.40224 10.7692 7.70902 10.7692 7C10.7692 6.58413 10.7542 6.17375 10.7251 5.77248C11.0342 5.62644 11.2751 5.35938 11.3868 5.03278H13.6086ZM6.5189 9.06104C6.37754 8.64762 6.02893 8.32975 5.59745 8.23184C5.56685 7.83059 5.5511 7.41858 5.5511 7C5.5511 6.32095 5.59244 5.65912 5.67182 5.03278H8.9811C9.12323 5.44841 9.47482 5.76751 9.9095 5.86359C9.9355 6.23465 9.9489 6.61454 9.9489 7.00003C9.9489 7.7131 9.90332 8.40714 9.81596 9.06106H6.5189V9.06104ZM4.86523 9.47119C4.86523 9.22261 5.06747 9.02038 5.31605 9.02038C5.56463 9.02038 5.76687 9.22261 5.76687 9.47119C5.76687 9.71977 5.56463 9.92201 5.31605 9.92201C5.06747 9.92201 4.86523 9.71977 4.86523 9.47119ZM10.6348 4.62262C10.6348 4.87121 10.4325 5.07344 10.1839 5.07344C9.93537 5.07344 9.73313 4.87121 9.73313 4.62262C9.73313 4.37404 9.93537 4.17181 10.1839 4.17181C10.4325 4.17181 10.6348 4.37402 10.6348 4.62262ZM13.2642 4.21247H11.3868C11.233 3.76277 10.834 3.42612 10.3499 3.36268C10.244 2.94361 10.1191 2.55016 9.97627 2.1893C9.79816 1.73942 9.59641 1.35425 9.37597 1.03783C11.0736 1.50128 12.4823 2.67195 13.2642 4.21247ZM2.28459 9.88135H4.1132C4.26963 10.3388 4.67982 10.6795 5.1752 10.7343C5.27558 11.1171 5.39196 11.4779 5.52375 11.8107C5.70187 12.2606 5.90361 12.6457 6.12406 12.9622C4.46107 12.5082 3.0755 11.3755 2.28459 9.88135Z" fill="white"/>
</svg>
