<svg width="15" height="15" viewBox="0 0 15 15" fill="none" xmlns="http://www.w3.org/2000/svg">
<path d="M10.7103 0.5H4.28967C2.20001 0.5 0.5 2.20001 0.5 4.28967V10.7104C0.5 12.8 2.20001 14.5 4.28967 14.5H10.7104C12.8 14.5 14.5 12.8 14.5 10.7104V4.28967C14.5 2.20001 12.8 0.5 10.7103 0.5ZM13.6792 10.7104C13.6792 12.3474 12.3474 13.6792 10.7103 13.6792H4.28967C2.65258 13.6792 1.32075 12.3474 1.32075 10.7104V4.28967C1.32075 2.65258 2.65258 1.32075 4.28967 1.32075H10.7104C12.3474 1.32075 13.6792 2.65258 13.6792 4.28967V10.7104Z" fill="black"/>
<path d="M7.50001 3.672C5.38921 3.672 3.672 5.38919 3.672 7.50002C3.672 9.61085 5.38918 11.328 7.50001 11.328C9.61084 11.328 11.328 9.61085 11.328 7.50002C11.328 5.38919 9.61084 3.672 7.50001 3.672ZM7.50001 10.5073C5.84189 10.5073 4.49275 9.15828 4.49275 7.50002C4.49275 5.84189 5.84189 4.49275 7.50001 4.49275C9.15827 4.49275 10.5073 5.84189 10.5073 7.50002C10.5073 9.15828 9.15827 10.5073 7.50001 10.5073ZM11.4196 2.3125C10.7958 2.3125 10.2884 2.81997 10.2884 3.44363C10.2884 4.06742 10.7958 4.57487 11.4196 4.57487C12.0434 4.57487 12.5508 4.06742 12.5508 3.44366C12.5508 2.81989 12.0433 2.3125 11.4196 2.3125ZM11.4196 3.75403C11.2485 3.75403 11.1092 3.61475 11.1092 3.44363C11.1092 3.27243 11.2485 3.13325 11.4196 3.13325C11.5908 3.13325 11.7301 3.27243 11.7301 3.44363C11.7301 3.61475 11.5908 3.75403 11.4196 3.75403Z" fill="black"/>
</svg>
