<svg width="10" height="10" viewBox="0 0 10 10" fill="none" xmlns="http://www.w3.org/2000/svg">
<path d="M8.9602 4.10656H6.7002C7.5802 2.88656 7.3202 1.66656 7.3602 1.22656V1.20656C7.3602 0.666563 6.9402 0.226562 6.4002 0.226562C5.7402 0.226562 5.5202 0.786562 5.3002 1.36656C5.0402 2.04656 4.7002 2.90656 3.5802 3.44656L2.8602 3.82656V3.78656C2.8602 3.56656 2.6802 3.38656 2.4602 3.38656H1.2002C0.640195 3.38656 0.200195 3.82656 0.200195 4.38656V8.68656C0.200195 9.24656 0.640195 9.68656 1.2002 9.68656H2.4602C2.6802 9.68656 2.8602 9.50656 2.8602 9.28656V9.26656C3.2002 9.34656 3.4802 9.42656 3.7402 9.48656C4.5002 9.68656 5.0602 9.84656 5.8602 9.84656H7.9802C8.4402 9.84656 8.8202 9.46656 8.8202 8.98656C8.8202 8.78656 8.7602 8.60656 8.6402 8.46656C8.9602 8.34656 9.1802 8.02656 9.1802 7.66656C9.1802 7.46656 9.1202 7.28656 9.0002 7.14656C9.3202 7.02656 9.5402 6.70656 9.5402 6.34656C9.5402 6.12656 9.4602 5.94656 9.3402 5.78656C9.6202 5.64656 9.8202 5.34656 9.8202 5.00656C9.80019 4.48656 9.4202 4.10656 8.9602 4.10656ZM1.2002 9.26656C0.860195 9.26656 0.600195 9.00656 0.600195 8.66656V4.36656C0.600195 4.02656 0.860195 3.76656 1.2002 3.76656H2.4602V9.24656H1.2002V9.26656ZM8.9602 5.42656H7.7802C7.6602 5.42656 7.5802 5.50656 7.5802 5.62656C7.5802 5.74656 7.6602 5.82656 7.7802 5.82656H8.6802C8.9202 5.82656 9.1202 6.02656 9.1202 6.28656C9.1202 6.54656 8.9202 6.74656 8.6802 6.74656H7.4202C7.3002 6.74656 7.2202 6.82656 7.2202 6.94656C7.2202 7.06656 7.3002 7.14656 7.4202 7.14656H8.3202C8.56019 7.14656 8.7602 7.34656 8.7602 7.60656C8.7602 7.86656 8.56019 8.06656 8.3202 8.06656H7.0602C6.9402 8.06656 6.8602 8.14656 6.8602 8.26656C6.8602 8.60656 7.3602 8.42656 7.9602 8.46656C8.2002 8.46656 8.4002 8.66656 8.4002 8.92656C8.4002 9.18656 8.2002 9.42656 7.9602 9.42656H5.8402C5.0802 9.42656 4.5802 9.28656 3.8202 9.08656C3.5402 9.00656 3.2202 8.92656 2.8402 8.82656V4.26656L3.7602 3.82656C5.0202 3.20656 5.4002 2.22656 5.6802 1.52656C5.9202 0.926562 6.0402 0.646562 6.4002 0.646562C6.7002 0.646562 6.9402 0.906563 6.9602 1.20656C6.9202 1.70656 7.1602 2.78656 6.3602 3.88656L6.1402 4.18656C6.0402 4.30656 6.1402 4.50656 6.3002 4.50656H8.9602C9.2002 4.50656 9.4002 4.70656 9.4002 4.96656C9.4002 5.22656 9.2002 5.42656 8.9602 5.42656Z" fill="black"/>
</svg>
