<svg width="24" height="30" viewBox="0 0 24 30" fill="none" xmlns="http://www.w3.org/2000/svg">
<path d="M12.0001 0C5.88929 0 0.917969 4.97132 0.917969 11.0821C0.917969 13.0939 1.82019 15.2575 1.85799 15.3488C2.14939 16.0404 2.72436 17.1147 3.13896 17.7445L10.7374 29.2575C11.0483 29.7295 11.5086 30 12.0001 30C12.4916 30 12.9519 29.7295 13.2628 29.2581L20.8619 17.7445C21.2772 17.1147 21.8515 16.0404 22.1429 15.3488C22.1807 15.2581 23.0822 13.0945 23.0822 11.0821C23.0822 4.97132 18.1109 0 12.0001 0ZM20.9408 14.8429C20.6807 15.4628 20.1455 16.4622 19.7732 17.0267L12.1742 28.5404C12.0242 28.7679 11.9766 28.7679 11.8267 28.5404L4.22762 17.0267C3.85539 16.4622 3.32018 15.4622 3.06008 14.8422C3.049 14.8155 2.22175 12.824 2.22175 11.0821C2.22175 5.69035 6.60832 1.30378 12.0001 1.30378C17.3919 1.30378 21.7785 5.69035 21.7785 11.0821C21.7785 12.8266 20.9493 14.8233 20.9408 14.8429Z" fill="#4BADE6"/>
<path d="M12.0003 5.21582C8.76498 5.21582 6.1333 7.84815 6.1333 11.0828C6.1333 14.3175 8.76498 16.9499 12.0003 16.9499C15.2356 16.9499 17.8673 14.3175 17.8673 11.0828C17.8673 7.84815 15.2356 5.21582 12.0003 5.21582ZM12.0003 15.6461C9.48467 15.6461 7.43708 13.5991 7.43708 11.0828C7.43708 8.56654 9.48467 6.5196 12.0003 6.5196C14.516 6.5196 16.5635 8.56654 16.5635 11.0828C16.5635 13.5991 14.516 15.6461 12.0003 15.6461Z" fill="#4BADE6"/>
</svg>
