<svg width="25" height="24" viewBox="0 0 25 24" fill="none" xmlns="http://www.w3.org/2000/svg">
<path d="M22.5759 16.8268C22.2354 16.6398 21.808 16.7642 21.6211 17.1045C21.4341 17.4448 21.5584 17.8723 21.8988 18.0593C22.7363 18.5194 23.2167 19.0295 23.2167 19.4588C23.2167 19.9838 22.4728 20.7976 20.3848 21.5069C18.3221 22.2078 15.5655 22.5937 12.623 22.5937C9.68038 22.5937 6.9238 22.2078 4.86106 21.5069C2.77311 20.7976 2.02921 19.9838 2.02921 19.4588C2.02921 19.0295 2.50958 18.5194 3.34714 18.0592C3.6875 17.8723 3.81181 17.4448 3.62483 17.1044C3.43785 16.7641 3.01049 16.6398 2.67003 16.8267C1.73619 17.3398 0.622955 18.2129 0.622955 19.4588C0.622955 20.4138 1.27977 21.7754 4.40867 22.8385C6.6133 23.5875 9.53052 24 12.623 24C15.7154 24 18.6326 23.5875 20.8372 22.8385C23.9661 21.7754 24.623 20.4138 24.623 19.4588C24.623 18.2129 23.5097 17.3398 22.5759 16.8268Z" fill="#4BADE6"/>
<path d="M7.31446 20.4905C8.7418 20.8937 10.6271 21.1158 12.623 21.1158C14.6188 21.1158 16.5041 20.8937 17.9315 20.4905C19.6777 19.9972 20.5631 19.2831 20.5631 18.3682C20.5631 17.4532 19.6777 16.7392 17.9315 16.246C17.5438 16.1365 17.1222 16.0404 16.674 15.9585C16.4306 16.3791 16.1755 16.8119 15.9088 17.2573C16.405 17.3317 16.8708 17.423 17.2938 17.5308C18.5789 17.8581 19.0484 18.2266 19.1449 18.3682C19.0483 18.5099 18.5789 18.8784 17.2938 19.2057C16.0775 19.5155 14.5125 19.6922 12.8642 19.708C12.7844 19.7139 12.704 19.7173 12.623 19.7173C12.5419 19.7173 12.4615 19.7139 12.3816 19.708C10.7334 19.6922 9.16841 19.5156 7.95205 19.2057C6.66693 18.8784 6.19747 18.5099 6.10096 18.3682C6.19747 18.2266 6.66697 17.8581 7.9521 17.5308C8.3751 17.4231 8.84089 17.3317 9.33707 17.2573C9.07039 16.812 8.81535 16.379 8.57193 15.9585C8.12371 16.0405 7.70207 16.1365 7.31446 16.246C5.56822 16.7392 4.6828 17.4533 4.6828 18.3682C4.6828 19.2831 5.56822 19.9972 7.31446 20.4905Z" fill="#4BADE6"/>
<path d="M12.623 18.311C13.2489 18.311 13.8174 17.992 14.144 17.4578C16.4319 13.7145 19.1592 8.78109 19.1592 6.5362C19.1592 2.93212 16.2271 0 12.623 0C9.01883 0 6.0867 2.93212 6.0867 6.5362C6.0867 8.78109 8.81403 13.7145 11.102 17.4578C11.4285 17.992 11.9971 18.311 12.623 18.311ZM9.99575 6.08742C9.99575 4.63884 11.1743 3.46031 12.623 3.46031C14.0716 3.46031 15.2502 4.63884 15.2502 6.08742C15.2502 7.53605 14.0716 8.71458 12.623 8.71458C11.1743 8.71458 9.99575 7.53609 9.99575 6.08742Z" fill="#4BADE6"/>
</svg>
