<svg width="20" height="20" viewBox="0 0 20 20" fill="none" xmlns="http://www.w3.org/2000/svg">
<path d="M17.5425 7.5H17.4625C17.3452 7.49896 17.231 7.46264 17.1347 7.39575C17.0384 7.32886 16.9644 7.23451 16.9225 7.125C16.8784 7.01925 16.8667 6.90276 16.8889 6.79035C16.9112 6.67794 16.9664 6.5747 17.0475 6.49375L17.1044 6.43687C17.4472 6.09272 17.6397 5.62672 17.6397 5.14094C17.6397 4.65515 17.4472 4.18916 17.1044 3.845L16.16 2.90125C15.8161 2.55814 15.3502 2.36545 14.8644 2.36545C14.3786 2.36545 13.9126 2.55814 13.5687 2.90125L13.5119 2.95812C13.4281 3.03882 13.3226 3.0933 13.2082 3.11488C13.0939 3.13646 12.9758 3.1242 12.8684 3.0796C12.7609 3.035 12.6688 2.96001 12.6034 2.86382C12.538 2.76764 12.502 2.65444 12.5 2.53812V2.4575C12.4995 1.97164 12.3063 1.50583 11.9627 1.16228C11.6192 0.818722 11.1534 0.625496 10.6675 0.625H9.3325C8.84664 0.625496 8.38083 0.818722 8.03728 1.16228C7.69372 1.50583 7.5005 1.97164 7.5 2.4575V2.53812C7.49695 2.65361 7.4605 2.76573 7.39504 2.86092C7.32959 2.9561 7.23794 3.03028 7.1312 3.07445C7.02446 3.11863 6.90721 3.13092 6.79363 3.10983C6.68005 3.08874 6.57502 3.03518 6.49125 2.95563L6.4375 2.89875C6.09361 2.55564 5.62766 2.36295 5.14188 2.36295C4.65609 2.36295 4.19014 2.55564 3.84625 2.89875L2.89875 3.8425C2.55591 4.18666 2.36341 4.65265 2.36341 5.13844C2.36341 5.62422 2.55591 6.09022 2.89875 6.43437L2.95563 6.49125C3.03753 6.57505 3.09236 6.68154 3.11298 6.7969C3.13359 6.91225 3.11906 7.03114 3.07125 7.13812C3.02836 7.24469 2.95467 7.33604 2.85959 7.4005C2.76451 7.46496 2.65237 7.4996 2.5375 7.5H2.4575C1.97164 7.5005 1.50583 7.69372 1.16228 8.03728C0.818722 8.38083 0.625496 8.84664 0.625 9.3325V10.6675C0.625496 11.1534 0.818722 11.6192 1.16228 11.9627C1.50583 12.3063 1.97164 12.4995 2.4575 12.5H2.5375C2.65476 12.501 2.76899 12.5374 2.86531 12.6043C2.96163 12.6711 3.03557 12.7655 3.0775 12.875C3.12164 12.9807 3.13333 13.0972 3.11107 13.2096C3.08881 13.3221 3.03361 13.4253 2.9525 13.5063L2.89562 13.5631C2.55278 13.9073 2.36028 14.3733 2.36028 14.8591C2.36028 15.3448 2.55278 15.8108 2.89562 16.155L3.83938 17.0981C4.18321 17.4416 4.64932 17.6345 5.13531 17.6345C5.6213 17.6345 6.08741 17.4416 6.43125 17.0981L6.48812 17.0413C6.57197 16.9594 6.67846 16.9046 6.79379 16.884C6.90913 16.8634 7.028 16.8779 7.135 16.9256C7.24156 16.9683 7.33294 17.0419 7.39741 17.1369C7.46189 17.2319 7.49652 17.3439 7.49687 17.4587V17.5394C7.49671 17.7805 7.54408 18.0193 7.63627 18.242C7.72846 18.4648 7.86366 18.6672 8.03415 18.8377C8.20464 19.0082 8.40706 19.1434 8.62984 19.2356C8.85262 19.3278 9.0914 19.3752 9.3325 19.375H10.6675C11.1534 19.3745 11.6192 19.1813 11.9627 18.8377C12.3063 18.4942 12.4995 18.0284 12.5 17.5425V17.4619C12.503 17.3464 12.5395 17.2343 12.605 17.1391C12.6704 17.0439 12.7621 16.9697 12.8688 16.9255C12.9755 16.8814 13.0928 16.8691 13.2064 16.8902C13.32 16.9113 13.425 16.9648 13.5087 17.0444L13.5656 17.1012C13.9095 17.4444 14.3755 17.6371 14.8612 17.6371C15.347 17.6371 15.813 17.4444 16.1569 17.1012L17.1012 16.1581C17.4441 15.814 17.6366 15.348 17.6366 14.8622C17.6366 14.3764 17.4441 13.9104 17.1012 13.5662L17.0444 13.5094C16.9625 13.4256 16.9076 13.3191 16.887 13.2037C16.8664 13.0884 16.8809 12.9695 16.9288 12.8625C16.9715 12.7558 17.0452 12.6643 17.1403 12.5998C17.2354 12.5352 17.3476 12.5004 17.4625 12.5H17.5425C18.0284 12.4995 18.4942 12.3063 18.8377 11.9627C19.1813 11.6192 19.3745 11.1534 19.375 10.6675V9.3325C19.3745 8.84664 19.1813 8.38083 18.8377 8.03728C18.4942 7.69372 18.0284 7.5005 17.5425 7.5ZM18.125 10.6675C18.1248 10.8219 18.0634 10.97 17.9542 11.0792C17.845 11.1884 17.6969 11.2498 17.5425 11.25H17.4625C17.0998 11.2531 16.746 11.3629 16.4453 11.5656C16.1446 11.7684 15.9102 12.0552 15.7714 12.3903C15.6326 12.7254 15.5955 13.094 15.6647 13.45C15.7339 13.806 15.9064 14.1338 16.1606 14.3925L16.2169 14.4494C16.326 14.5588 16.3873 14.707 16.3873 14.8616C16.3873 15.0161 16.326 15.1643 16.2169 15.2738L15.2725 16.2169C15.1633 16.3261 15.0151 16.3875 14.8606 16.3875C14.7061 16.3875 14.558 16.3261 14.4487 16.2169L14.3925 16.16C14.1337 15.906 13.8059 15.7338 13.45 15.6648C13.0941 15.5957 12.7257 15.6329 12.3907 15.7717C12.0557 15.9104 11.769 16.1447 11.5662 16.4452C11.3633 16.7458 11.2534 17.0993 11.25 17.4619V17.5425C11.2498 17.6969 11.1884 17.845 11.0792 17.9542C10.97 18.0634 10.8219 18.1248 10.6675 18.125H9.3325C9.17806 18.1248 9.03 18.0634 8.92079 17.9542C8.81159 17.845 8.75016 17.6969 8.75 17.5425V17.4619C8.74824 17.0986 8.63923 16.7439 8.43665 16.4423C8.23406 16.1407 7.94693 15.9057 7.61127 15.7667C7.2756 15.6277 6.90637 15.591 6.54989 15.6611C6.19342 15.7311 5.86557 15.9049 5.6075 16.1606L5.55062 16.2175C5.44122 16.3264 5.29313 16.3876 5.13875 16.3876C4.98437 16.3876 4.83628 16.3264 4.72688 16.2175L3.78312 15.2744C3.67401 15.1649 3.61273 15.0167 3.61273 14.8622C3.61273 14.7077 3.67401 14.5594 3.78312 14.45L3.84 14.3931C4.0945 14.1344 4.26718 13.8065 4.33649 13.4503C4.40581 13.0941 4.36869 12.7254 4.22977 12.3902C4.09084 12.0549 3.85627 11.768 3.55532 11.5653C3.25437 11.3625 2.90037 11.2528 2.5375 11.25H2.4575C2.30306 11.2498 2.155 11.1884 2.04579 11.0792C1.93659 10.97 1.87517 10.8219 1.875 10.6675V9.3325C1.87517 9.17806 1.93659 9.03 2.04579 8.92079C2.155 8.81159 2.30306 8.75016 2.4575 8.75H2.5375C2.90019 8.74691 3.25395 8.63714 3.55468 8.43436C3.8554 8.23157 4.08979 7.94476 4.22861 7.60967C4.36743 7.27458 4.40454 6.90604 4.33533 6.55C4.26611 6.19396 4.09363 5.86617 3.83938 5.6075L3.78312 5.55062C3.67405 5.4413 3.61279 5.29318 3.61279 5.13875C3.61279 4.98432 3.67405 4.83619 3.78312 4.72688L4.72688 3.7825C4.83611 3.67327 4.98427 3.6119 5.13875 3.6119C5.29323 3.6119 5.44139 3.67327 5.55062 3.7825L5.60687 3.83938C5.86559 4.0935 6.19336 4.2659 6.54935 4.33509C6.90534 4.40428 7.27382 4.36721 7.60889 4.22849C7.94396 4.08977 8.23082 3.85554 8.43372 3.55496C8.63663 3.25439 8.74662 2.90076 8.75 2.53812V2.4575C8.75016 2.30306 8.81159 2.155 8.92079 2.04579C9.03 1.93659 9.17806 1.87517 9.3325 1.875H10.6675C10.8219 1.87517 10.97 1.93659 11.0792 2.04579C11.1884 2.155 11.2498 2.30306 11.25 2.4575V2.53812C11.2532 2.90076 11.3631 3.25444 11.5659 3.55507C11.7687 3.8557 12.0555 4.08999 12.3906 4.22873C12.7257 4.36748 13.0942 4.40454 13.4501 4.3353C13.8061 4.26607 14.1339 4.09359 14.3925 3.83938L14.4494 3.7825C14.5586 3.67327 14.7068 3.6119 14.8612 3.6119C15.0157 3.6119 15.1639 3.67327 15.2731 3.7825L16.2169 4.72688C16.326 4.83619 16.3872 4.98432 16.3872 5.13875C16.3872 5.29318 16.326 5.4413 16.2169 5.55062L16.16 5.6075C15.9057 5.86621 15.7332 6.19406 15.664 6.55016C15.5948 6.90625 15.632 7.27484 15.7709 7.60996C15.9098 7.94507 16.1443 8.23188 16.4451 8.43461C16.7459 8.63735 17.0998 8.74704 17.4625 8.75H17.5425C17.6969 8.75016 17.845 8.81159 17.9542 8.92079C18.0634 9.03 18.1248 9.17806 18.125 9.3325V10.6675Z" fill="#A1AEBE"/>
<path d="M10 5.625C9.13471 5.625 8.28885 5.88159 7.56938 6.36232C6.84992 6.84305 6.28916 7.52633 5.95803 8.32576C5.6269 9.12519 5.54026 10.0049 5.70907 10.8535C5.87788 11.7022 6.29456 12.4817 6.90641 13.0936C7.51826 13.7054 8.29781 14.1221 9.14648 14.2909C9.99515 14.4597 10.8748 14.3731 11.6742 14.042C12.4737 13.7108 13.157 13.1501 13.6377 12.4306C14.1184 11.7112 14.375 10.8653 14.375 10C14.3737 8.84008 13.9123 7.72805 13.0921 6.90787C12.2719 6.08768 11.1599 5.62632 10 5.625ZM10 13.125C9.38194 13.125 8.77775 12.9417 8.26384 12.5983C7.74994 12.255 7.3494 11.7669 7.11288 11.1959C6.87635 10.6249 6.81447 9.99653 6.93505 9.39034C7.05563 8.78415 7.35325 8.22733 7.79029 7.79029C8.22733 7.35325 8.78415 7.05562 9.39034 6.93505C9.99654 6.81447 10.6249 6.87635 11.1959 7.11288C11.7669 7.3494 12.255 7.74994 12.5983 8.26384C12.9417 8.77775 13.125 9.38193 13.125 10C13.124 10.8285 12.7945 11.6228 12.2086 12.2086C11.6228 12.7945 10.8285 13.124 10 13.125Z" fill="#A1AEBE"/>
</svg>
