<svg width="18" height="17" viewBox="0 0 18 17" fill="none" xmlns="http://www.w3.org/2000/svg">
<path d="M9.00001 16.725C7.64817 16.7337 6.31637 16.3982 5.13001 15.75C5.10625 15.7401 5.08075 15.735 5.05501 15.735C5.02926 15.735 5.00377 15.7401 4.98001 15.75L2.33251 16.5C2.17047 16.5516 1.9974 16.5577 1.83211 16.5178C1.66683 16.4779 1.51565 16.3934 1.39503 16.2735C1.27441 16.1537 1.18895 16.0031 1.14796 15.838C1.10696 15.673 1.11199 15.4999 1.16251 15.3375L1.95751 12.675C1.97477 12.6291 1.97477 12.5785 1.95751 12.5325C1.14444 11.0465 0.820069 9.3421 1.03045 7.66128C1.24083 5.98046 1.97526 4.4086 3.12951 3.1688C4.28376 1.92899 5.79919 1.08423 7.46071 0.754408C9.12222 0.424587 10.8454 0.626466 12.3857 1.33139C13.926 2.03631 15.2051 3.20847 16.0416 4.68149C16.878 6.15451 17.2292 7.85356 17.0454 9.53749C16.8616 11.2214 16.1521 12.8047 15.0175 14.0626C13.883 15.3204 12.3811 16.189 10.725 16.545C10.1575 16.663 9.57961 16.7233 9.00001 16.725ZM5.03251 14.5725C5.25517 14.5756 5.47383 14.6322 5.67001 14.7375C6.64059 15.2698 7.72446 15.5621 8.83106 15.59C9.93766 15.6179 11.0349 15.3806 12.0311 14.8979C13.0272 14.4152 13.8934 13.7011 14.5573 12.8154C15.2212 11.9296 15.6635 10.8978 15.8472 9.80617C16.0309 8.71457 15.9508 7.59485 15.6134 6.54055C15.2761 5.48624 14.6914 4.52797 13.9081 3.74577C13.1248 2.96358 12.1657 2.38017 11.111 2.04429C10.0562 1.7084 8.93636 1.6298 7.84501 1.81503C6.75155 1.9967 5.71771 2.43828 4.83043 3.10265C3.94315 3.76702 3.22838 4.63474 2.74623 5.63283C2.26409 6.63093 2.02867 7.73021 2.05978 8.83821C2.0909 9.94622 2.38762 11.0306 2.92501 12C3.00951 12.1531 3.06294 12.3213 3.08225 12.4951C3.10155 12.6688 3.08635 12.8447 3.03751 13.0125L2.34001 15.33L4.65751 14.6325C4.77889 14.5942 4.90524 14.574 5.03251 14.5725Z" fill="#0D121C"/>
<path d="M6 9.9375C6.51777 9.9375 6.9375 9.51777 6.9375 9C6.9375 8.48223 6.51777 8.0625 6 8.0625C5.48223 8.0625 5.0625 8.48223 5.0625 9C5.0625 9.51777 5.48223 9.9375 6 9.9375Z" fill="#0D121C"/>
<path d="M9 9.9375C9.51777 9.9375 9.9375 9.51777 9.9375 9C9.9375 8.48223 9.51777 8.0625 9 8.0625C8.48223 8.0625 8.0625 8.48223 8.0625 9C8.0625 9.51777 8.48223 9.9375 9 9.9375Z" fill="#0D121C"/>
<path d="M12 9.9375C12.5178 9.9375 12.9375 9.51777 12.9375 9C12.9375 8.48223 12.5178 8.0625 12 8.0625C11.4822 8.0625 11.0625 8.48223 11.0625 9C11.0625 9.51777 11.4822 9.9375 12 9.9375Z" fill="#0D121C"/>
</svg>
