<svg width="16" height="16" viewBox="0 0 16 16" fill="none" xmlns="http://www.w3.org/2000/svg">
<path d="M15.0152 0.604961C14.9414 0.541077 14.8548 0.493763 14.7613 0.466216C14.6677 0.438669 14.5693 0.431531 14.4727 0.445284L4.93893 1.80726C4.60342 1.8552 4.35424 2.14253 4.35424 2.48144V10.4655C3.95089 10.2305 3.48264 10.0952 2.98311 10.0952C1.47605 10.0952 0.25 11.3213 0.25 12.8283C0.25 14.3354 1.47605 15.5615 2.98311 15.5615C4.49017 15.5615 5.71622 14.3354 5.71622 12.8283V5.79599L13.888 4.62857V9.10359C13.4847 8.86859 13.0164 8.73328 12.5169 8.73328C11.0098 8.73328 9.78378 9.95936 9.78378 11.4664C9.78378 12.9734 11.0098 14.1995 12.5169 14.1995C14.024 14.1995 15.25 12.9734 15.25 11.4664V1.11944C15.25 1.02186 15.229 0.925438 15.1885 0.836678C15.148 0.747918 15.0889 0.668897 15.0152 0.604961ZM2.98308 14.1994C2.22705 14.1994 1.61195 13.5843 1.61195 12.8283C1.61195 12.0723 2.22705 11.4572 2.98308 11.4572C3.73911 11.4572 4.35421 12.0723 4.35421 12.8283C4.35421 13.5843 3.73911 14.1994 2.98308 14.1994ZM13.888 3.25274L5.71619 4.42016V3.07203L13.888 1.90462V3.25274ZM12.5169 12.8375C11.7608 12.8375 11.1457 12.2224 11.1457 11.4663C11.1457 10.7103 11.7608 10.0952 12.5169 10.0952C13.2729 10.0952 13.888 10.7103 13.888 11.4663C13.888 12.2224 13.2729 12.8375 12.5169 12.8375Z" fill="white"/>
</svg>
