<svg width="18" height="18" viewBox="0 0 18 18" fill="none" xmlns="http://www.w3.org/2000/svg">
<path d="M9 7.89008C8.6925 7.89008 8.4375 7.63508 8.4375 7.32758V4.83008C8.4375 4.52258 8.6925 4.26758 9 4.26758C9.3075 4.26758 9.5625 4.52258 9.5625 4.83008V7.32758C9.5625 7.64258 9.3075 7.89008 9 7.89008Z" fill="#0D121C"/>
<path d="M9.01502 15.2627C7.08002 15.2627 5.15252 14.9552 3.31502 14.3402C2.63252 14.1152 2.11502 13.6277 1.89002 13.0127C1.66502 12.3977 1.74002 11.6927 2.10752 11.0777L3.06002 9.48768C3.27002 9.13518 3.45752 8.47518 3.45752 8.06268V6.48768C3.45752 3.42018 5.94752 0.930176 9.01502 0.930176C12.0825 0.930176 14.5725 3.42018 14.5725 6.48768V8.06268C14.5725 8.46768 14.76 9.13518 14.97 9.48768L15.9225 11.0777C16.275 11.6627 16.335 12.3602 16.1025 12.9977C15.87 13.6352 15.36 14.1227 14.715 14.3402C12.8775 14.9627 10.95 15.2627 9.01502 15.2627ZM9.01502 2.06268C6.57002 2.06268 4.58252 4.05018 4.58252 6.49518V8.07018C4.58252 8.67768 4.34252 9.55518 4.02752 10.0727L3.07502 11.6702C2.88002 11.9927 2.83502 12.3377 2.94752 12.6377C3.06002 12.9377 3.31502 13.1627 3.67502 13.2827C7.12502 14.4302 10.92 14.4302 14.37 13.2827C14.6925 13.1777 14.94 12.9377 15.0525 12.6227C15.1725 12.3077 15.135 11.9627 14.9625 11.6702L14.01 10.0802C13.695 9.56268 13.455 8.68518 13.455 8.07768V6.50268C13.4475 4.05018 11.46 2.06268 9.01502 2.06268Z" fill="#0D121C"/>
<path d="M9 17.1752C8.1975 17.1752 7.41 16.8452 6.84 16.2752C6.27 15.7052 5.94 14.9177 5.94 14.1152H7.065C7.065 14.6252 7.275 15.1202 7.635 15.4802C7.995 15.8402 8.49 16.0502 9 16.0502C10.065 16.0502 10.935 15.1802 10.935 14.1152H12.06C12.06 15.8027 10.6875 17.1752 9 17.1752Z" fill="#0D121C"/>
</svg>
