<svg width="48" height="48" viewBox="0 0 48 48" fill="none" xmlns="http://www.w3.org/2000/svg">
<rect width="48" height="48" rx="24" fill="#EEF2F6"/>
<g clip-path="url(#clip0_268_1862)">
<path d="M33.051 21H32.955C32.8143 20.9988 32.6772 20.9552 32.5616 20.8749C32.446 20.7946 32.3573 20.6814 32.307 20.55C32.254 20.4231 32.24 20.2833 32.2667 20.1484C32.2934 20.0135 32.3597 19.8896 32.457 19.7925L32.5252 19.7242C32.9367 19.3113 33.1677 18.7521 33.1677 18.1691C33.1677 17.5862 32.9367 17.027 32.5252 16.614L31.392 15.4815C30.9793 15.0698 30.4202 14.8385 29.8372 14.8385C29.2543 14.8385 28.6952 15.0698 28.2825 15.4815L28.2142 15.5497C28.1137 15.6466 27.9871 15.712 27.8499 15.7379C27.7127 15.7637 27.571 15.749 27.442 15.6955C27.3131 15.642 27.2026 15.552 27.1241 15.4366C27.0455 15.3212 27.0024 15.1853 27 15.0457V14.949C26.9994 14.366 26.7675 13.807 26.3553 13.3947C25.943 12.9825 25.384 12.7506 24.801 12.75H23.199C22.616 12.7506 22.057 12.9825 21.6447 13.3947C21.2325 13.807 21.0006 14.366 21 14.949V15.0457C20.9963 15.1843 20.9526 15.3189 20.8741 15.4331C20.7955 15.5473 20.6855 15.6363 20.5574 15.6893C20.4294 15.7424 20.2886 15.7571 20.1524 15.7318C20.0161 15.7065 19.89 15.6422 19.7895 15.5468L19.725 15.4785C19.3123 15.0668 18.7532 14.8355 18.1702 14.8355C17.5873 14.8355 17.0282 15.0668 16.6155 15.4785L15.4785 16.611C15.0671 17.024 14.8361 17.5832 14.8361 18.1661C14.8361 18.7491 15.0671 19.3083 15.4785 19.7213L15.5468 19.7895C15.645 19.8901 15.7108 20.0179 15.7356 20.1563C15.7603 20.2947 15.7429 20.4374 15.6855 20.5657C15.634 20.6936 15.5456 20.8032 15.4315 20.8806C15.3174 20.958 15.1828 20.9995 15.045 21H14.949C14.366 21.0006 13.807 21.2325 13.3947 21.6447C12.9825 22.057 12.7506 22.616 12.75 23.199V24.801C12.7506 25.384 12.9825 25.943 13.3947 26.3553C13.807 26.7675 14.366 26.9994 14.949 27H15.045C15.1857 27.0012 15.3228 27.0448 15.4384 27.1251C15.554 27.2054 15.6427 27.3186 15.693 27.45C15.746 27.5769 15.76 27.7167 15.7333 27.8516C15.7066 27.9865 15.6403 28.1104 15.543 28.2075L15.4748 28.2758C15.0633 28.6887 14.8323 29.2479 14.8323 29.8309C14.8323 30.4138 15.0633 30.973 15.4748 31.386L16.6073 32.5177C17.0199 32.9299 17.5792 33.1614 18.1624 33.1614C18.7456 33.1614 19.3049 32.9299 19.7175 32.5177L19.7857 32.4495C19.8864 32.3513 20.0142 32.2856 20.1526 32.2608C20.291 32.2361 20.4336 32.2535 20.562 32.3107C20.6899 32.362 20.7995 32.4503 20.8769 32.5643C20.9543 32.6782 20.9958 32.8127 20.9963 32.9505V33.0472C20.9961 33.3366 21.0529 33.6231 21.1635 33.8904C21.2742 34.1578 21.4364 34.4007 21.641 34.6053C21.8456 34.8099 22.0885 34.9721 22.3558 35.0827C22.6231 35.1934 22.9097 35.2502 23.199 35.25H24.801C25.384 35.2494 25.943 35.0175 26.3553 34.6053C26.7675 34.193 26.9994 33.634 27 33.051V32.9543C27.0037 32.8157 27.0474 32.6811 27.1259 32.5669C27.2045 32.4527 27.3145 32.3637 27.4426 32.3107C27.5706 32.2576 27.7114 32.2429 27.8476 32.2682C27.9839 32.2935 28.11 32.3578 28.2105 32.4533L28.2787 32.5215C28.6914 32.9332 29.2506 33.1645 29.8335 33.1645C30.4164 33.1645 30.9756 32.9332 31.3883 32.5215L32.5215 31.3898C32.9329 30.9768 33.1639 30.4176 33.1639 29.8346C33.1639 29.2517 32.9329 28.6925 32.5215 28.2795L32.4533 28.2113C32.355 28.1107 32.2892 27.9829 32.2644 27.8445C32.2397 27.7061 32.2571 27.5634 32.3145 27.435C32.3659 27.307 32.4542 27.1972 32.5683 27.1197C32.6824 27.0422 32.8171 27.0005 32.955 27H33.051C33.634 26.9994 34.193 26.7675 34.6053 26.3553C35.0175 25.943 35.2494 25.384 35.25 24.801V23.199C35.2494 22.616 35.0175 22.057 34.6053 21.6447C34.193 21.2325 33.634 21.0006 33.051 21ZM33.75 24.801C33.7498 24.9863 33.6761 25.164 33.545 25.295C33.414 25.4261 33.2363 25.4998 33.051 25.5H32.955C32.5198 25.5037 32.0953 25.6354 31.7344 25.8788C31.3735 26.1221 31.0923 26.4663 30.9257 26.8684C30.7591 27.2705 30.7145 27.7127 30.7976 28.14C30.8807 28.5672 31.0877 28.9606 31.3927 29.271L31.4603 29.3392C31.5912 29.4706 31.6647 29.6484 31.6647 29.8339C31.6647 30.0193 31.5912 30.1972 31.4603 30.3285L30.327 31.4603C30.1959 31.5913 30.0181 31.665 29.8328 31.665C29.6474 31.665 29.4696 31.5913 29.3385 31.4603L29.271 31.392C28.9605 31.0873 28.5671 30.8806 28.14 30.7977C27.7129 30.7149 27.2708 30.7595 26.8688 30.926C26.4669 31.0925 26.1228 31.3736 25.8794 31.7343C25.636 32.0949 25.504 32.5192 25.5 32.9543V33.051C25.4998 33.2363 25.4261 33.414 25.295 33.545C25.164 33.6761 24.9863 33.7498 24.801 33.75H23.199C23.0137 33.7498 22.836 33.6761 22.705 33.545C22.5739 33.414 22.5002 33.2363 22.5 33.051V32.9543C22.4979 32.5183 22.3671 32.0927 22.124 31.7308C21.8809 31.3689 21.5363 31.0869 21.1335 30.9201C20.7307 30.7533 20.2876 30.7092 19.8599 30.7933C19.4321 30.8774 19.0387 31.0859 18.729 31.3927L18.6607 31.461C18.5295 31.5917 18.3518 31.6651 18.1665 31.6651C17.9812 31.6651 17.8035 31.5917 17.6723 31.461L16.5398 30.3293C16.4088 30.1979 16.3353 30.0201 16.3353 29.8346C16.3353 29.6492 16.4088 29.4713 16.5398 29.34L16.608 29.2717C16.9134 28.9613 17.1206 28.5678 17.2038 28.1404C17.287 27.713 17.2424 27.2705 17.0757 26.8682C16.909 26.4659 16.6275 26.1216 16.2664 25.8783C15.9052 25.635 15.4804 25.5034 15.045 25.5H14.949C14.7637 25.4998 14.586 25.4261 14.455 25.295C14.3239 25.164 14.2502 24.9863 14.25 24.801V23.199C14.2502 23.0137 14.3239 22.836 14.455 22.705C14.586 22.5739 14.7637 22.5002 14.949 22.5H15.045C15.4802 22.4963 15.9047 22.3646 16.2656 22.1212C16.6265 21.8779 16.9077 21.5337 17.0743 21.1316C17.2409 20.7295 17.2855 20.2873 17.2024 19.86C17.1193 19.4328 16.9124 19.0394 16.6073 18.729L16.5398 18.6607C16.4089 18.5296 16.3353 18.3518 16.3353 18.1665C16.3353 17.9812 16.4089 17.8034 16.5398 17.6723L17.6723 16.539C17.8033 16.4079 17.9811 16.3343 18.1665 16.3343C18.3519 16.3343 18.5297 16.4079 18.6607 16.539L18.7282 16.6073C19.0387 16.9122 19.432 17.1191 19.8592 17.2021C20.2864 17.2851 20.7286 17.2407 21.1307 17.0742C21.5328 16.9077 21.877 16.6266 22.1205 16.266C22.364 15.9053 22.4959 15.4809 22.5 15.0457V14.949C22.5002 14.7637 22.5739 14.586 22.705 14.455C22.836 14.3239 23.0137 14.2502 23.199 14.25H24.801C24.9863 14.2502 25.164 14.3239 25.295 14.455C25.4261 14.586 25.4998 14.7637 25.5 14.949V15.0457C25.5038 15.4809 25.6357 15.9053 25.8791 16.2661C26.1225 16.6268 26.4667 16.908 26.8687 17.0745C27.2708 17.241 27.713 17.2854 28.1402 17.2024C28.5674 17.1193 28.9606 16.9123 29.271 16.6073L29.3392 16.539C29.4703 16.4079 29.6481 16.3343 29.8335 16.3343C30.0189 16.3343 30.1967 16.4079 30.3278 16.539L31.4603 17.6723C31.5911 17.8034 31.6647 17.9812 31.6647 18.1665C31.6647 18.3518 31.5911 18.5296 31.4603 18.6607L31.392 18.729C31.0869 19.0395 30.8799 19.4329 30.7968 19.8602C30.7138 20.2875 30.7584 20.7298 30.9251 21.1319C31.0917 21.5341 31.3731 21.8783 31.7341 22.1215C32.0951 22.3648 32.5197 22.4964 32.955 22.5H33.051C33.2363 22.5002 33.414 22.5739 33.545 22.705C33.6761 22.836 33.7498 23.0137 33.75 23.199V24.801Z" fill="#0D0D12"/>
<path d="M24 18.75C22.9617 18.75 21.9466 19.0579 21.0833 19.6348C20.2199 20.2117 19.547 21.0316 19.1496 21.9909C18.7523 22.9502 18.6483 24.0058 18.8509 25.0242C19.0535 26.0426 19.5535 26.9781 20.2877 27.7123C21.0219 28.4465 21.9574 28.9466 22.9758 29.1491C23.9942 29.3517 25.0498 29.2477 26.0091 28.8504C26.9684 28.453 27.7883 27.7801 28.3652 26.9167C28.9421 26.0534 29.25 25.0384 29.25 24C29.2484 22.6081 28.6948 21.2737 27.7106 20.2894C26.7263 19.3052 25.3919 18.7516 24 18.75ZM24 27.75C23.2583 27.75 22.5333 27.5301 21.9166 27.118C21.2999 26.706 20.8193 26.1203 20.5355 25.4351C20.2516 24.7498 20.1774 23.9958 20.3221 23.2684C20.4668 22.541 20.8239 21.8728 21.3484 21.3483C21.8728 20.8239 22.541 20.4667 23.2684 20.3221C23.9958 20.1774 24.7498 20.2516 25.4351 20.5355C26.1203 20.8193 26.706 21.2999 27.118 21.9166C27.5301 22.5333 27.75 23.2583 27.75 24C27.7488 24.9942 27.3533 25.9473 26.6503 26.6503C25.9473 27.3533 24.9942 27.7488 24 27.75Z" fill="#0D0D12"/>
</g>
<defs>
<clipPath id="clip0_268_1862">
<rect width="24" height="24" fill="white" transform="translate(12 12)"/>
</clipPath>
</defs>
</svg>
