<svg width="16" height="13" viewBox="0 0 16 13" fill="none" xmlns="http://www.w3.org/2000/svg">
<path d="M7.97718 6.38442C8.95935 5.82226 9.63044 4.77552 9.63044 3.56508C9.63044 1.76703 8.1676 0.304199 6.36956 0.304199C4.57152 0.304199 3.10868 1.76703 3.10868 3.56508C3.10868 4.77552 3.77977 5.82226 4.76194 6.38442C2.30523 7.02943 0.5 9.10661 0.5 11.5686V12.3694C0.5 12.5494 0.646097 12.6955 0.826097 12.6955C1.0061 12.6955 1.15219 12.5494 1.15219 12.3694V11.5686C1.15216 8.95401 3.49283 6.82595 6.36956 6.82595C9.24629 6.82595 11.587 8.95401 11.587 11.5686V12.3694C11.587 12.5494 11.7331 12.6955 11.9131 12.6955C12.0931 12.6955 12.2392 12.5494 12.2392 12.3694V11.5686C12.2391 9.10661 10.4339 7.02879 7.97718 6.38442ZM3.76088 3.56508C3.76088 2.12639 4.93088 0.956393 6.36956 0.956393C7.80825 0.956393 8.97824 2.12639 8.97824 3.56508C8.97824 5.00376 7.80825 6.17376 6.36956 6.17376C4.93088 6.17376 3.76088 5.00379 3.76088 3.56508Z" fill="#95D4ED"/>
<path d="M12.3684 6.39273C13.0754 5.92513 13.5437 5.12555 13.5437 4.21708C13.5437 2.7784 12.3737 1.6084 10.935 1.6084C10.755 1.6084 10.6089 1.7545 10.6089 1.9345C10.6089 2.1145 10.755 2.26059 10.935 2.26059C12.0137 2.26059 12.8915 3.13843 12.8915 4.21711C12.8915 5.2958 12.0137 6.17363 10.935 6.17363C10.755 6.17363 10.6089 6.31973 10.6089 6.49973C10.6089 6.67973 10.755 6.82577 10.935 6.82577C13.093 6.82577 14.848 8.44772 14.848 10.4421V11.0649C14.848 11.2449 14.9941 11.391 15.1741 11.391C15.3541 11.391 15.5002 11.2449 15.5002 11.0649V10.4421C15.5002 8.55729 14.1854 6.95621 12.3684 6.39273Z" fill="#95D4ED"/>
</svg>
