<svg width="16" height="16" viewBox="0 0 16 16" fill="none" xmlns="http://www.w3.org/2000/svg">
<path d="M14.8587 13.2519L9.60789 8.00109L9.84592 7.76302C10.0828 7.52618 10.3873 7.38532 10.7035 7.36643C11.2397 7.33456 11.7456 7.10706 12.1252 6.72705L15.2335 3.61883L14.6118 2.99718L12.2288 5.38016L11.6071 4.75851L13.9901 2.3755L13.3685 1.75385L10.9855 4.13683L10.3639 3.51518L12.7469 1.1322L12.1252 0.510576L9.01694 3.61883C8.63695 3.99848 8.40944 4.50435 8.37753 5.04055C8.35864 5.35672 8.21784 5.66126 7.98097 5.8981L7.74293 6.13613L2.1068 0.5H1.56985L1.46022 0.778613C1.17083 1.51397 1.04719 2.26607 1.10271 2.95358C1.16599 3.73722 1.46368 4.4157 1.96369 4.91568L5.46355 8.41555L0.640991 13.2381C0.126831 13.7523 0.126831 14.5889 0.640991 15.103C1.1807 15.6427 2.02199 15.587 2.50591 15.103L7.74293 9.86601L12.9938 15.1169C13.5604 15.6834 14.407 15.5686 14.8587 15.1169C15.3729 14.6028 15.3729 13.7661 14.8587 13.2519ZM8.60262 6.51975C8.99168 6.13068 9.22342 5.62402 9.25515 5.09299C9.2743 4.77145 9.41074 4.46811 9.63862 4.24045L9.74224 4.13683L11.6072 6.00178L11.5036 6.1054C11.2759 6.33326 10.9726 6.46971 10.6511 6.48887C10.12 6.5206 9.61333 6.75231 9.2243 7.14137L8.98626 7.37943L8.97777 7.37094L8.36458 6.75778L8.60262 6.51975ZM1.88429 14.4814C1.71291 14.6528 1.43406 14.6529 1.26264 14.4814C1.09125 14.31 1.09125 14.0312 1.26264 13.8598L6.08523 9.0372L6.70691 9.65885L1.88429 14.4814ZM7.32003 9.0287L2.58531 4.294C1.91904 3.62771 1.87117 2.61295 2.0836 1.72013L8.35609 7.99262L7.32003 9.0287ZM14.2371 14.4953C14.0657 14.6667 13.7868 14.6667 13.6154 14.4953L8.36455 9.24442L8.98621 8.62276L14.2371 13.8736C14.278 13.9143 14.3105 13.9628 14.3326 14.0161C14.3547 14.0695 14.366 14.1267 14.3658 14.1844C14.3658 14.3018 14.3201 14.4122 14.2371 14.4953Z" fill="#6E6E6E"/>
</svg>
