<svg width="19" height="18" viewBox="0 0 19 18" fill="none" xmlns="http://www.w3.org/2000/svg">
<path d="M17.7243 18L10.8443 11.1208C10.2949 11.5888 9.66316 11.9509 8.949 12.2073C8.23485 12.4636 7.51703 12.5918 6.79555 12.5918C5.03617 12.5918 3.54706 11.9828 2.32824 10.7648C1.10941 9.5469 0.5 8.05835 0.5 6.29918C0.5 4.54001 1.10868 3.05072 2.32604 1.83131C3.5434 0.611903 5.03177 0.00146739 6.79116 2.63445e-06C8.55054 -0.00146212 10.0404 0.607876 11.2607 1.82802C12.481 3.04816 13.0911 4.53744 13.0911 6.29588C13.0911 7.05902 12.956 7.79762 12.6857 8.51169C12.4154 9.22576 12.0602 9.83656 11.6199 10.3441L18.5 17.2222L17.7243 18ZM6.79665 11.4921C8.25426 11.4921 9.4848 10.9904 10.4883 9.98706C11.4918 8.98371 11.9935 7.75295 11.9935 6.29478C11.9935 4.83662 11.4918 3.60623 10.4883 2.6036C9.4848 1.60098 8.25426 1.0993 6.79665 1.09857C5.33904 1.09784 4.10813 1.59951 3.10392 2.6036C2.09971 3.60769 1.59797 4.83809 1.5987 6.29478C1.59943 7.75148 2.10117 8.98188 3.10392 9.98596C4.10667 10.9901 5.33721 11.4917 6.79555 11.491" fill="#6E6E6E"/>
</svg>
