<svg width="48" height="48" viewBox="0 0 48 48" fill="none" xmlns="http://www.w3.org/2000/svg">
<path d="M24 0.5C36.9787 0.5 47.5 11.0213 47.5 24C47.5 36.9787 36.9787 47.5 24 47.5C11.0213 47.5 0.5 36.9787 0.5 24C0.5 11.0213 11.0213 0.5 24 0.5Z" stroke="#4BADE6"/>
<path fill-rule="evenodd" clip-rule="evenodd" d="M14.7693 14C13.6838 14 12.9577 15.1173 13.3986 16.1092L16.3641 22.7816C16.7088 23.5573 16.7088 24.4427 16.3641 25.2184L13.3986 31.8908C12.9577 32.8827 13.6838 34 14.7693 34H18.8577C20.4365 34 21.9876 33.5847 23.3552 32.7957L33.4991 26.9434C34.4277 26.4077 34.9999 25.417 34.9999 24.3449V23.6551C34.9999 22.583 34.4277 21.5923 33.4991 21.0566L23.3552 15.2043C21.9876 14.4153 20.4365 14 18.8577 14H14.7693ZM18.1917 21.9693L15.5386 16H18.8577C20.0857 16 21.2921 16.323 22.3557 16.9367L32.4996 22.7889C32.8092 22.9675 32.9999 23.2977 32.9999 23.6551V24.3449C32.9999 24.7023 32.8092 25.0325 32.4996 25.2111L22.3557 31.0633C21.2921 31.677 20.0857 32 18.8577 32H15.5386L18.1917 26.0307C18.3399 25.6972 18.4499 25.3515 18.5216 25L26 25V23L18.5216 23C18.4499 22.6485 18.3399 22.3028 18.1917 21.9693Z" fill="#4BADE6"/>
</svg>
