<svg width="30" height="30" viewBox="0 0 30 30" fill="none" xmlns="http://www.w3.org/2000/svg">
<path d="M16.4 30H13.6C13.1422 29.9996 12.7004 29.8315 12.3582 29.5274C12.0159 29.2234 11.7969 28.8045 11.7425 28.35L11.4437 26.005C10.8535 25.8134 10.2792 25.5756 9.72625 25.2938L7.85875 26.745C7.49817 27.0284 7.04578 27.1691 6.58805 27.14C6.13032 27.111 5.69935 26.9143 5.3775 26.5875L3.40875 24.6187C3.08377 24.2972 2.88858 23.8673 2.86045 23.411C2.83232 22.9547 2.97322 22.504 3.25625 22.145L4.7075 20.2763C4.42462 19.7238 4.18676 19.1494 3.99625 18.5588L1.64625 18.26C1.19228 18.2039 0.774432 17.9839 0.471268 17.6414C0.168105 17.2989 0.00051185 16.8574 0 16.4L0 13.6C0 12.6538 0.70875 11.855 1.65 11.7425L3.995 11.4437C4.1866 10.8535 4.42442 10.2792 4.70625 9.72625L3.25625 7.85875C2.97209 7.49815 2.83112 7.04529 2.86042 6.58711C2.88972 6.12893 3.08722 5.69772 3.415 5.37625L5.38375 3.4075C5.70542 3.08277 6.13534 2.88775 6.59155 2.85963C7.04777 2.8315 7.49838 2.97224 7.8575 3.255L9.725 4.7075C10.2783 4.42545 10.853 4.18762 11.4437 3.99625L11.7425 1.64625C11.855 0.70875 12.6538 0 13.6 0H16.4C17.3463 0 18.145 0.70875 18.2575 1.65L18.5562 3.995C19.1537 4.18875 19.7287 4.4275 20.275 4.70625L22.1425 3.255C22.503 2.97119 22.9556 2.83044 23.4135 2.85973C23.8714 2.88903 24.3023 3.08631 24.6237 3.41375L26.5925 5.3825C27.2638 6.03375 27.3312 7.1 26.745 7.85625L25.2938 9.725C25.5738 10.2713 25.8125 10.8463 26.005 11.4425L28.355 11.7412C28.8086 11.7973 29.2262 12.0172 29.5291 12.3595C29.832 12.7018 29.9995 13.1429 30 13.6V16.4C30 17.3463 29.2913 18.145 28.35 18.2575L26.005 18.5562C25.8134 19.1465 25.5756 19.7208 25.2938 20.2738L26.745 22.1412C27.0288 22.5018 27.1696 22.9544 27.1403 23.4122C27.111 23.8701 26.9137 24.3011 26.5862 24.6225L24.6175 26.5913C24.2961 26.9165 23.8661 27.1118 23.4098 27.14C22.9534 27.1681 22.5027 27.027 22.1437 26.7438L20.275 25.2925C19.7226 25.5754 19.1482 25.8132 18.5575 26.0037L18.2588 28.3538C18.203 28.8076 17.9832 29.2254 17.6409 29.5286C17.2986 29.8318 16.8573 29.9995 16.4 30ZM9.6625 23.925C9.76625 23.925 9.8725 23.9512 9.9675 24.0037C10.669 24.3943 11.4131 24.7029 12.185 24.9237C12.3023 24.9574 12.4073 25.0247 12.4868 25.1174C12.5663 25.21 12.617 25.3239 12.6325 25.445L12.9825 28.195C13.02 28.5087 13.2913 28.75 13.6 28.75H16.4C16.5515 28.748 16.6973 28.6913 16.8105 28.5906C16.9237 28.4898 16.9967 28.3515 17.0163 28.2013L17.3675 25.4463C17.383 25.3252 17.4337 25.2113 17.5132 25.1186C17.5927 25.026 17.6977 24.9587 17.815 24.925C18.5869 24.7042 19.331 24.3955 20.0325 24.005C20.1396 23.9452 20.2619 23.9183 20.3842 23.9276C20.5064 23.937 20.6233 23.9821 20.72 24.0575L22.9075 25.7575C23.0253 25.8523 23.174 25.9004 23.325 25.8926C23.476 25.8847 23.6189 25.8215 23.7263 25.715L25.7075 23.7337C25.8159 23.6264 25.8808 23.4828 25.8898 23.3306C25.8988 23.1783 25.8512 23.0281 25.7562 22.9087L24.0563 20.7212C23.981 20.6244 23.936 20.5076 23.9266 20.3854C23.9173 20.2632 23.9441 20.1409 24.0037 20.0338C24.3943 19.3322 24.7029 18.5882 24.9237 17.8162C24.9574 17.6989 25.0247 17.594 25.1174 17.5145C25.21 17.4349 25.3239 17.3843 25.445 17.3688L28.195 17.0187C28.3465 16.9998 28.4861 16.9268 28.5881 16.8131C28.6901 16.6994 28.7476 16.5527 28.75 16.4V13.6C28.748 13.4485 28.6913 13.3027 28.5906 13.1895C28.4898 13.0763 28.3515 13.0033 28.2013 12.9838L25.4463 12.6325C25.3252 12.617 25.2113 12.5663 25.1186 12.4868C25.026 12.4073 24.9587 12.3023 24.925 12.185C24.7042 11.4131 24.3955 10.669 24.005 9.9675C23.9449 9.86053 23.9178 9.73815 23.9271 9.6158C23.9365 9.49345 23.9818 9.3766 24.0575 9.28L25.7575 7.0925C25.8527 6.97514 25.9011 6.82675 25.8935 6.67585C25.8859 6.52494 25.8227 6.38218 25.7162 6.275L23.735 4.29375C23.6281 4.18461 23.4844 4.11916 23.3319 4.11015C23.1794 4.10113 23.029 4.14921 22.91 4.245L20.7225 5.945C20.6256 6.02047 20.5085 6.06571 20.386 6.07504C20.2635 6.08438 20.141 6.05741 20.0338 5.9975C19.3324 5.60665 18.5883 5.29795 17.8162 5.0775C17.6989 5.04382 17.594 4.97651 17.5145 4.88387C17.4349 4.79124 17.3843 4.67735 17.3688 4.55625L17.0187 1.80625C17.0001 1.65449 16.9272 1.51459 16.8134 1.41237C16.6997 1.31014 16.5529 1.25247 16.4 1.25H13.6C13.4485 1.25204 13.3027 1.30865 13.1895 1.40944C13.0763 1.51023 13.0033 1.64845 12.9838 1.79875L12.6325 4.55375C12.6169 4.67496 12.5662 4.78897 12.4867 4.88179C12.4072 4.97461 12.3024 5.04219 12.185 5.07625C11.413 5.29627 10.6689 5.60455 9.9675 5.995C9.86036 6.05508 9.7379 6.08227 9.6154 6.07315C9.49291 6.06404 9.37581 6.01903 9.27875 5.94375L7.09125 4.24375C6.97389 4.14858 6.8255 4.10015 6.6746 4.10777C6.52369 4.11538 6.38093 4.1785 6.27375 4.285L4.2925 6.2675C4.18412 6.37483 4.11919 6.5184 4.1102 6.67067C4.1012 6.82293 4.14876 6.97316 4.24375 7.0925L5.94375 9.28C6.01897 9.37681 6.06405 9.49361 6.07338 9.61586C6.08272 9.7381 6.05589 9.86039 5.99625 9.9675C5.60522 10.6688 5.29651 11.4129 5.07625 12.185C5.04257 12.3023 4.97526 12.4073 4.88262 12.4868C4.78999 12.5663 4.6761 12.617 4.555 12.6325L1.805 12.9825C1.65346 13.0009 1.51374 13.0736 1.4117 13.1872C1.30965 13.3007 1.25221 13.4474 1.25 13.6V16.4C1.25 16.7087 1.49125 16.98 1.79875 17.0163L4.55375 17.3675C4.67485 17.383 4.78874 17.4337 4.88137 17.5132C4.97401 17.5927 5.04132 17.6977 5.075 17.815C5.3 18.5975 5.61 19.3437 5.995 20.0325C6.05512 20.1395 6.08222 20.2618 6.07288 20.3842C6.06354 20.5066 6.01817 20.6234 5.9425 20.72L4.2425 22.9075C4.14733 23.0249 4.0989 23.1733 4.10652 23.3242C4.11413 23.4751 4.17725 23.6178 4.28375 23.725L6.265 25.7063C6.37218 25.8149 6.5158 25.88 6.66814 25.889C6.82049 25.898 6.97077 25.8503 7.09 25.755L9.2775 24.055C9.38843 23.9712 9.5235 23.9256 9.6625 23.925Z" fill="white"/>
<path d="M15 21.25C11.5538 21.25 8.75 18.4462 8.75 15C8.75 11.5538 11.5538 8.75 15 8.75C18.4462 8.75 21.25 11.5538 21.25 15C21.25 18.4462 18.4462 21.25 15 21.25ZM15 10C12.2425 10 10 12.2425 10 15C10 17.7575 12.2425 20 15 20C17.7575 20 20 17.7575 20 15C20 12.2425 17.7575 10 15 10Z" fill="white"/>
</svg>
