<svg width="25" height="25" viewBox="0 0 25 25" fill="none" xmlns="http://www.w3.org/2000/svg">
<g clip-path="url(#clip0_178_5392)">
<path d="M14.9414 23.0469C14.9414 23.3164 15.1602 23.5352 15.4297 23.5352C15.6992 23.5352 15.918 23.3164 15.918 23.0469C15.918 22.7774 15.6992 22.5586 15.4297 22.5586C15.1602 22.5586 14.9414 22.7774 14.9414 23.0469Z" fill="#697586"/>
<path d="M10.0586 1.95312C10.0586 1.68362 9.83982 1.46484 9.57031 1.46484C9.3008 1.46484 9.08203 1.68362 9.08203 1.95312C9.08203 2.22263 9.3008 2.44141 9.57031 2.44141C9.83982 2.44141 10.0586 2.22263 10.0586 1.95312Z" fill="#697586"/>
<path d="M5.0293 12.5C5.0293 12.2313 4.81091 12.0117 4.54102 12.0117C4.27151 12.0117 4.05273 12.2305 4.05273 12.5C4.05273 12.7695 4.27151 12.9883 4.54102 12.9883C4.81071 12.9883 5.0293 12.7689 5.0293 12.5Z" fill="#697586"/>
<path d="M7.50483 2.15003C4.63942 3.57845 2.24055 6.44996 1.39311 9.4651C1.32025 9.72469 1.47151 9.99439 1.7311 10.0672C1.98954 10.1401 2.26 9.99 2.33325 9.72927C3.10954 6.96723 5.31043 4.33509 7.94047 3.02398C8.18194 2.90363 8.27998 2.61047 8.15962 2.36919C8.03927 2.12791 7.74611 2.02968 7.50483 2.15003Z" fill="#697586"/>
<path d="M22.6666 9.72943C22.7394 9.98864 23.0085 10.1405 23.2689 10.0674C23.5285 9.99455 23.6797 9.72485 23.6069 9.46526C22.5477 5.69634 19.3039 2.45251 15.535 1.39336C15.2754 1.32031 15.0057 1.47176 14.9326 1.73135C14.8598 1.99113 15.011 2.26064 15.2706 2.3335C18.7243 3.30396 21.6963 6.27599 22.6666 9.72943Z" fill="#697586"/>
<path d="M16.8404 22.631C16.9613 22.8736 17.2552 22.9699 17.4952 22.8501C20.3606 21.4217 22.7594 18.5502 23.6069 15.5351C23.6797 15.2755 23.5285 15.0058 23.2689 14.9329C23.0093 14.8599 22.7396 15.0111 22.6667 15.2709C21.8905 18.0329 19.6896 20.6651 17.0595 21.9762C16.8182 22.0965 16.72 22.3897 16.8404 22.631Z" fill="#697586"/>
<path d="M1.7311 14.9328C1.47151 15.0057 1.32025 15.2754 1.39311 15.535C2.45226 19.3039 5.69609 22.5477 9.46501 23.6069C9.72346 23.6796 9.99411 23.5295 10.0674 23.2689C10.1402 23.0091 9.98896 22.7396 9.72937 22.6668C6.27593 21.6963 3.30371 18.7243 2.33344 15.2708C2.26039 15.0112 1.99088 14.86 1.7311 14.9328Z" fill="#697586"/>
<path d="M13.9648 1.46484C13.9648 0.657082 13.3078 0 12.5 0C11.6922 0 11.0352 0.657082 11.0352 1.46484C11.0352 2.27261 11.6922 2.92969 12.5 2.92969C13.3078 2.92969 13.9648 2.27261 13.9648 1.46484ZM12.0117 1.46484C12.0117 1.19553 12.2307 0.976562 12.5 0.976562C12.7693 0.976562 12.9883 1.19553 12.9883 1.46484C12.9883 1.73416 12.7693 1.95312 12.5 1.95312C12.2307 1.95312 12.0117 1.73416 12.0117 1.46484Z" fill="#697586"/>
<path d="M23.5352 11.0352C22.7274 11.0352 22.0703 11.6922 22.0703 12.5C22.0703 13.3078 22.7274 13.9648 23.5352 13.9648C24.3429 13.9648 25 13.3078 25 12.5C25 11.6922 24.3429 11.0352 23.5352 11.0352ZM23.5352 12.9883C23.2658 12.9883 23.0469 12.7693 23.0469 12.5C23.0469 12.2307 23.2658 12.0117 23.5352 12.0117C23.8045 12.0117 24.0234 12.2307 24.0234 12.5C24.0234 12.7693 23.8045 12.9883 23.5352 12.9883Z" fill="#697586"/>
<path d="M0 12.5C0 13.3078 0.657082 13.9648 1.46484 13.9648C2.27261 13.9648 2.92969 13.3078 2.92969 12.5C2.92969 11.6922 2.27261 11.0352 1.46484 11.0352C0.657082 11.0352 0 11.6922 0 12.5ZM1.46484 12.0117C1.73416 12.0117 1.95312 12.2307 1.95312 12.5C1.95312 12.7693 1.73416 12.9883 1.46484 12.9883C1.19553 12.9883 0.976562 12.7693 0.976562 12.5C0.976562 12.2307 1.19553 12.0117 1.46484 12.0117Z" fill="#697586"/>
<path d="M11.0352 23.5352C11.0352 24.3429 11.6922 25 12.5 25C13.3078 25 13.9648 24.3429 13.9648 23.5352C13.9648 22.7274 13.3078 22.0703 12.5 22.0703C11.6922 22.0703 11.0352 22.7274 11.0352 23.5352ZM12.9883 23.5352C12.9883 23.8045 12.7693 24.0234 12.5 24.0234C12.2307 24.0234 12.0117 23.8045 12.0117 23.5352C12.0117 23.2658 12.2307 23.0469 12.5 23.0469C12.7693 23.0469 12.9883 23.2658 12.9883 23.5352Z" fill="#697586"/>
<path d="M8.10547 15.4297V16.4063C8.10547 16.6759 8.32405 16.8945 8.59375 16.8945H16.4062C16.6759 16.8945 16.8945 16.6759 16.8945 16.4063V15.4297C16.8945 13.545 15.3612 12.0117 13.4766 12.0117H11.5234C9.63879 12.0117 8.10547 13.545 8.10547 15.4297ZM13.4766 12.9883C14.8228 12.9883 15.918 14.0835 15.918 15.4297V15.918H14.9414V14.9414C14.9414 14.6717 14.7228 14.4531 14.4531 14.4531C14.1834 14.4531 13.9648 14.6717 13.9648 14.9414V15.918H11.0352V14.9414C11.0352 14.6717 10.8166 14.4531 10.5469 14.4531C10.2772 14.4531 10.0586 14.6717 10.0586 14.9414V15.918H9.08203V15.4297C9.08203 14.0835 10.1772 12.9883 11.5234 12.9883H13.4766Z" fill="#697586"/>
<path d="M14.9414 9.57031C14.9414 8.22411 13.8462 7.12891 12.5 7.12891C11.1538 7.12891 10.0586 8.22411 10.0586 9.57031C10.0586 10.9165 11.1538 12.0117 12.5 12.0117C13.8462 12.0117 14.9414 10.9165 14.9414 9.57031ZM12.5 11.0352C11.6922 11.0352 11.0352 10.3781 11.0352 9.57031C11.0352 8.76255 11.6922 8.10547 12.5 8.10547C13.3078 8.10547 13.9648 8.76255 13.9648 9.57031C13.9648 10.3781 13.3078 11.0352 12.5 11.0352Z" fill="#697586"/>
<path d="M4.31119 10.4406C4.24424 10.7019 4.4016 10.968 4.6629 11.035C4.92402 11.1019 5.1901 10.9444 5.25704 10.6833C6.09723 7.40719 9.14327 5.0293 12.5 5.0293C16.5495 5.0293 19.9707 8.45051 19.9707 12.5C19.9707 16.5495 16.5495 19.9707 12.5 19.9707C9.15414 19.9707 6.10791 17.5922 5.25685 14.3152C5.18895 14.0543 4.92249 13.8977 4.66138 13.9654C4.40045 14.0333 4.24386 14.2998 4.31157 14.5607C5.27268 18.2613 8.71659 20.9473 12.5 20.9473C14.6479 20.9473 16.7933 20.0558 18.3863 18.5017C20.0377 16.8901 20.9473 14.7589 20.9473 12.5C20.9473 7.92122 17.079 4.05273 12.5 4.05273C8.6979 4.05273 5.24827 6.78596 4.31119 10.4406Z" fill="#697586"/>
</g>
<defs>
<clipPath id="clip0_178_5392">
<rect width="25" height="25" fill="white"/>
</clipPath>
</defs>
</svg>
