<svg width="19" height="20" viewBox="0 0 19 20" fill="none" xmlns="http://www.w3.org/2000/svg">
<path d="M17.833 10.8335C17.612 10.8335 17.4 10.9213 17.2438 11.0776C17.0875 11.2339 16.9997 11.4458 16.9997 11.6668V15.1777C16.999 15.7934 16.7541 16.3838 16.3187 16.8192C15.8833 17.2546 15.2929 17.4995 14.6772 17.5002H4.32218C3.70641 17.4995 3.11606 17.2546 2.68065 16.8192C2.24524 16.3838 2.00034 15.7934 1.99968 15.1777V11.6668C1.99968 11.4458 1.91188 11.2339 1.7556 11.0776C1.59932 10.9213 1.38736 10.8335 1.16634 10.8335C0.945328 10.8335 0.733366 10.9213 0.577086 11.0776C0.420805 11.2339 0.333008 11.4458 0.333008 11.6668V15.1777C0.334111 16.2353 0.754751 17.2493 1.50263 17.9972C2.2505 18.7451 3.26452 19.1657 4.32218 19.1668H14.6772C15.7348 19.1657 16.7489 18.7451 17.4967 17.9972C18.2446 17.2493 18.6652 16.2353 18.6663 15.1777V11.6668C18.6663 11.4458 18.5786 11.2339 18.4223 11.0776C18.266 10.9213 18.054 10.8335 17.833 10.8335Z" fill="#4BADE6"/>
<path d="M5.08902 7.25582L8.66652 3.67832V14.1667C8.66652 14.3877 8.75431 14.5996 8.91059 14.7559C9.06687 14.9122 9.27884 15 9.49985 15C9.72086 15 9.93282 14.9122 10.0891 14.7559C10.2454 14.5996 10.3332 14.3877 10.3332 14.1667V3.67832L13.9107 7.25582C14.0679 7.40762 14.2784 7.49161 14.4968 7.48971C14.7153 7.48781 14.9244 7.40017 15.0789 7.24567C15.2334 7.09116 15.321 6.88215 15.3229 6.66365C15.3248 6.44516 15.2408 6.23465 15.089 6.07748L10.089 1.07748C9.93274 0.921259 9.72082 0.833496 9.49985 0.833496C9.27888 0.833496 9.06696 0.921259 8.91068 1.07748L3.91068 6.07748C3.75889 6.23465 3.67489 6.44516 3.67679 6.66365C3.67869 6.88215 3.76633 7.09116 3.92084 7.24567C4.07534 7.40017 4.28435 7.48781 4.50285 7.48971C4.72135 7.49161 4.93185 7.40762 5.08902 7.25582Z" fill="#4BADE6"/>
</svg>
