<svg width="11" height="15" viewBox="0 0 11 15" fill="none" xmlns="http://www.w3.org/2000/svg">
<path d="M10.3617 3.40577L7.7251 0.911414C7.44466 0.646098 7.0776 0.5 6.69156 0.5H1.67188C0.842621 0.5 0.167969 1.17465 0.167969 2.00391V12.9961C0.167969 13.8253 0.842621 14.5 1.67188 14.5H9.32812C10.1574 14.5 10.832 13.8253 10.832 12.9961V4.49826C10.832 4.08676 10.6606 3.68855 10.3617 3.40577ZM9.56495 3.78125H7.52344C7.44805 3.78125 7.38672 3.71992 7.38672 3.64453V1.72052L9.56495 3.78125ZM9.32812 13.6797H1.67188C1.29494 13.6797 0.988281 13.373 0.988281 12.9961V2.00391C0.988281 1.62697 1.29494 1.32031 1.67188 1.32031H6.56641V3.64453C6.56641 4.17224 6.99573 4.60156 7.52344 4.60156H10.0117V12.9961C10.0117 13.373 9.70506 13.6797 9.32812 13.6797Z" fill="black"/>
<path d="M8.42578 5.96875H2.41016C2.18364 5.96875 2 6.15239 2 6.37891C2 6.60542 2.18364 6.78906 2.41016 6.78906H8.42578C8.6523 6.78906 8.83594 6.60542 8.83594 6.37891C8.83594 6.15239 8.6523 5.96875 8.42578 5.96875ZM8.42578 8.15625H2.41016C2.18364 8.15625 2 8.33989 2 8.56641C2 8.79292 2.18364 8.97656 2.41016 8.97656H8.42578C8.6523 8.97656 8.83594 8.79292 8.83594 8.56641C8.83594 8.33989 8.6523 8.15625 8.42578 8.15625ZM4.39859 10.3438H2.41016C2.18364 10.3438 2 10.5274 2 10.7539C2 10.9804 2.18364 11.1641 2.41016 11.1641H4.39859C4.62511 11.1641 4.80875 10.9804 4.80875 10.7539C4.80875 10.5274 4.62511 10.3438 4.39859 10.3438Z" fill="black"/>
</svg>
