<svg width="13" height="15" viewBox="0 0 13 15" fill="none" xmlns="http://www.w3.org/2000/svg">
<path d="M12.1094 2.16477L6.61789 0.517308C6.54102 0.494231 6.45906 0.494231 6.38219 0.517308L0.890632 2.16477C0.806145 2.19011 0.732079 2.24202 0.679424 2.31279C0.626769 2.38355 0.59833 2.46941 0.598328 2.55762V8.59829C0.598328 9.38398 0.91639 10.1883 1.54368 10.9888C2.0228 11.6002 2.68561 12.2142 3.51375 12.8136C4.90491 13.8206 6.27478 14.4384 6.33242 14.4642C6.38514 14.4878 6.44225 14.5 6.50001 14.5C6.55777 14.5 6.61488 14.4878 6.6676 14.4642C6.72524 14.4384 8.09508 13.8206 9.48625 12.8136C10.3144 12.2142 10.9772 11.6002 11.4563 10.9888C12.0836 10.1883 12.4016 9.38401 12.4016 8.59829V2.55762C12.4017 2.46941 12.3732 2.38355 12.3206 2.31278C12.2679 2.24201 12.1939 2.19011 12.1094 2.16477ZM11.5814 8.59829C11.5814 9.98877 10.1862 11.2926 9.0158 12.1415C7.96651 12.9026 6.90237 13.4426 6.50004 13.6366C6.0977 13.4426 5.03354 12.9026 3.98425 12.1415C2.81383 11.2926 1.41864 9.98877 1.41864 8.59829V2.86277L6.50001 1.33836L11.5814 2.86277V8.59829Z" fill="black"/>
</svg>
