<svg width="14" height="15" viewBox="0 0 14 15" fill="none" xmlns="http://www.w3.org/2000/svg">
<path d="M14 7.5C14 5.63023 13.2719 3.87239 11.9498 2.55023C10.6276 1.22814 8.86977 0.5 7 0.5C5.62855 0.5 4.31752 0.892219 3.19427 1.62276C2.96773 1.41416 2.66558 1.28649 2.33409 1.28649C1.63319 1.28649 1.06296 1.85671 1.06296 2.55762C1.06296 2.86313 1.17135 3.14378 1.35166 3.36325C0.474223 4.55601 0 5.9915 0 7.5C0 9.36977 0.728137 11.1276 2.05023 12.4498C3.37239 13.7719 5.13023 14.5 7 14.5C8.37145 14.5 9.68245 14.1078 10.8057 13.3772C11.0323 13.5858 11.3344 13.7135 11.6659 13.7135C12.3668 13.7135 12.937 13.1433 12.937 12.4424C12.937 12.1369 12.8286 11.8562 12.6483 11.6368C13.5258 10.444 14 9.0085 14 7.5ZM12.1167 12.4424C12.1167 12.691 11.9145 12.8932 11.6659 12.8932C11.4173 12.8932 11.2151 12.691 11.2151 12.4424C11.2151 12.1938 11.4173 11.9916 11.6659 11.9916C11.9145 11.9916 12.1167 12.1938 12.1167 12.4424ZM11.6659 11.1713C10.965 11.1713 10.3948 11.7415 10.3948 12.4424C10.3948 12.513 10.4008 12.5822 10.412 12.6497C9.87027 13.0098 9.26885 13.2867 8.62594 13.4622C8.84641 13.1457 9.04813 12.7606 9.22625 12.3107C9.45221 11.74 9.63323 11.0877 9.765 10.3813H12.4654C12.3131 10.6691 12.139 10.9437 11.9448 11.2024C11.8549 11.1822 11.7617 11.1713 11.6659 11.1713ZM5.53648 12.0087C5.41997 11.7144 5.31639 11.3957 5.22629 11.057C5.47796 10.9034 5.67202 10.6647 5.7689 10.3813H8.93022C8.81141 10.9765 8.65484 11.5255 8.46352 12.0087C8.04926 13.055 7.50217 13.6797 7 13.6797C6.49783 13.6797 5.95071 13.055 5.53648 12.0087ZM1.17417 9.56104C0.945328 8.91608 0.820312 8.22242 0.820312 7.5C0.820312 6.81252 0.933297 6.15097 1.14141 5.53278H4.09568C4.02 6.16344 3.98078 6.82458 3.98078 7.5C3.98078 7.94726 3.99804 8.38823 4.03162 8.81827C3.71932 8.96363 3.47569 9.23209 3.3632 9.56104H1.17417ZM1.88327 2.55762C1.88327 2.30904 2.08551 2.1068 2.33409 2.1068C2.58267 2.1068 2.78491 2.30904 2.78491 2.55762C2.78491 2.8062 2.58267 3.00843 2.33409 3.00843C2.08551 3.00843 1.88327 2.8062 1.88327 2.55762ZM2.33409 3.82875C3.03499 3.82875 3.60522 3.25852 3.60522 2.55762C3.60522 2.48699 3.59918 2.41781 3.58805 2.3503C4.12973 1.99021 4.73115 1.71335 5.37409 1.5378C5.15364 1.85425 4.9519 2.23939 4.77378 2.68928C4.53786 3.28518 4.35096 3.96998 4.21794 4.71244H1.48575C1.64927 4.3903 1.84002 4.08427 2.05527 3.79755C2.14506 3.81775 2.23828 3.82875 2.33409 3.82875ZM8.46352 2.99126C8.58933 3.30902 8.69999 3.65544 8.7949 4.0245C8.53303 4.17746 8.33066 4.42126 8.23107 4.71247H5.05154C5.17237 4.08113 5.33512 3.49975 5.53645 2.99126C5.95071 1.94498 6.49783 1.32031 7 1.32031C7.50217 1.32031 8.04926 1.94498 8.46352 2.99126ZM12.8586 5.53278C13.0667 6.15097 13.1797 6.81252 13.1797 7.5C13.1797 8.22242 13.0547 8.91608 12.8258 9.56104H9.89259C9.97585 8.90224 10.0192 8.20902 10.0192 7.5C10.0192 7.08413 10.0042 6.67375 9.97508 6.27248C10.2842 6.12644 10.5251 5.85938 10.6368 5.53278H12.8586ZM5.7689 9.56104C5.62754 9.14762 5.27893 8.82975 4.84745 8.73184C4.81685 8.33059 4.8011 7.91858 4.8011 7.5C4.8011 6.82095 4.84244 6.15912 4.92182 5.53278H8.2311C8.37323 5.94841 8.72482 6.26751 9.1595 6.36359C9.1855 6.73465 9.1989 7.11454 9.1989 7.50003C9.1989 8.2131 9.15332 8.90714 9.06596 9.56106H5.7689V9.56104ZM4.11523 9.97119C4.11523 9.72261 4.31747 9.52038 4.56605 9.52038C4.81463 9.52038 5.01687 9.72261 5.01687 9.97119C5.01687 10.2198 4.81463 10.422 4.56605 10.422C4.31747 10.422 4.11523 10.2198 4.11523 9.97119ZM9.88477 5.12262C9.88477 5.37121 9.68253 5.57344 9.43395 5.57344C9.18537 5.57344 8.98313 5.37121 8.98313 5.12262C8.98313 4.87404 9.18537 4.67181 9.43395 4.67181C9.68253 4.67181 9.88477 4.87402 9.88477 5.12262ZM12.5142 4.71247H10.6368C10.483 4.26277 10.084 3.92612 9.5999 3.86268C9.49402 3.44361 9.36914 3.05016 9.22627 2.6893C9.04816 2.23942 8.84641 1.85425 8.62597 1.53783C10.3236 2.00128 11.7323 3.17195 12.5142 4.71247ZM1.53459 10.3813H3.3632C3.51963 10.8388 3.92982 11.1795 4.4252 11.2343C4.52558 11.6171 4.64196 11.9779 4.77375 12.3107C4.95187 12.7606 5.15361 13.1457 5.37406 13.4622C3.71107 13.0082 2.3255 11.8755 1.53459 10.3813Z" fill="white"/>
</svg>
